<?xml version="1.0" encoding="utf-8"?>
<!-- Generator: Adobe Illustrator 15.0.0, SVG Export Plug-In . SVG Version: 6.00 Build 0)  -->
<!DOCTYPE svg PUBLIC "-//W3C//DTD SVG 1.1//EN" "http://www.w3.org/Graphics/SVG/1.1/DTD/svg11.dtd">
<svg version="1.1" id="Layer_1" xmlns="http://www.w3.org/2000/svg" xmlns:xlink="http://www.w3.org/1999/xlink" x="0px" y="0px"
	 width="400px" height="400px" viewBox="0 0 400 400" enable-background="new 0 0 400 400" xml:space="preserve">
<path opacity="0.03" fill="#FFFFFF" d="M220.085,155.269c0.198-0.341,0.395-0.683,0.593-1.03
	C219.402,153.765,219.513,154.94,220.085,155.269z M270.913,116.134c0.143,0.083,0.287,0.168,0.431,0.25
	c0.112-0.243,0.25-0.307,0.385-0.385L270.913,116.134z M262.579,270.276c-0.643,1.239-0.455,2.08,0.328,2.631
	c0.266-0.74,0.528-1.486,0.79-2.232C263.325,270.543,262.951,270.416,262.579,270.276z M379.863,98.782
	c-0.444-0.158-0.892-0.313-1.334-0.471l-1.088,0.18c-0.07,0.206-0.139,0.411-0.214,0.616c0.745,0.259,1.491,0.528,2.237,0.784
	C379.591,99.519,379.729,99.155,379.863,98.782z M227.642,144.561c0.692-0.658,1.201-2.01,2.216-1.454
	C229.658,138.492,224.929,141.855,227.642,144.561z M215.814,155.541c-0.304,0.664-0.547,1.309,0.433,1.625
	C216.943,156.4,216.411,155.964,215.814,155.541z M219.486,156.292C217.631,156.065,218.877,157.595,219.486,156.292
	L219.486,156.292z M267.506,118.274c0.2-0.341,0.395-0.68,0.595-1.024C266.82,116.769,266.934,117.948,267.506,118.274z
	 M270.027,116.28l-1.513,0.252c-0.137,0.24-0.278,0.478-0.414,0.717c0.341,0.196,0.683,0.396,1.026,0.594
	C269.428,117.323,269.728,116.801,270.027,116.28z M79.077,338.9l1.504-1.164c0.778-3.129,1.631-6.288,2.443-9.43l-3.973,10.543
	L79.077,338.9z M87.532,316.34l-0.304,0.803c2.292,1.264,4.912,3.438,6.16,1.744C93.749,317.68,90.414,317.407,87.532,316.34z
	 M395.399,95.517l-12.674,2.099c1.037,0.658,2.061,1.306,3.123,2.029c-1.789,3.164-3.577-1.928-5.096-1.704l-0.277,0.047
	c-0.209,0.133-0.417,0.367-0.612,0.793c0.618,0.212,0.94,1.35-0.398,1.109c-0.133,0.373-0.267,0.746-0.398,1.122
	c1.397,0.363,0.114,1.874,0,0c-0.777-0.556-2.193-0.815-1.839-1.906c-0.292-0.133-0.544-0.278-0.722-0.461l-7.901,1.309
	c0.462,0.461-0.075,0.993-0.304,0.05l-8.047,1.331c-1.915,6.239-4.646,12.532-6.283,17.219c0.221-4.675,2.374-11.151,4.52-16.925
	l-69.274,11.473c0.149,0.038,0.216,0.098,0.387,0.133c-1.727,1.628-2.144,1.217-2.934,0.288l-14.558,2.412
	c0.31,0.142,0.341,0.584-0.768,0.449c-0.693,0.661-1.202,2.007-2.217,1.46c-0.42,0.588-0.859,1.125-1.621,0.43
	c-0.964,1.801-2.313,2.174-3.837,1.896c1.374,1.659-0.101,4.077,0.705,5.891c0.424-0.598,0.859-1.131,1.624-0.439
	c0.777-1.875,2.627-1.868,1.027,0.597c0.346,0.199,0.686,0.395,1.028,0.594c0.612-1.298,1.854,0.234,0,0
	c-0.693,0.664-1.202,2.011-2.217,1.46c-0.612,1.299-1.855-0.231,0,0c0.396-0.686,0.79-1.375,1.188-2.054
	c-0.341-0.199-0.685-0.395-1.027-0.597c-0.417,0.591-0.856,1.131-1.624,0.439c-0.587,1.024-1.188,2.048-1.779,3.079
	c-1.347-0.796,0.104-2.342-0.863-3.243c-5.23,5.339-6.498,8.423-9.346,13.784c-1.157,0.398-2.728-0.752-3.84-0.196
	c-0.342,0.5-0.671,0.999-1.019,1.499c1.827,0.348,3.465-0.025,5.294,0.322c0.86-1.119,1.512-3.016,2.808-2.484
	c1.662-5.462,4.165,3.894,0,0c-0.856,1.112-1.505,3.015-2.808,2.484c-0.692,3.35,4.653,0.259,4.542,3.995
	c-3.526,2.155-3.444-0.411-6.758-2.535c-7.127-1.536-3.574,8.167-8.426,7.459c-1.397-2.339,3.417-8.623,5.348-9.242
	c0.24-0.86,0.601-1.29,1.019-1.499c4.908-7.219,9.27-14.551,15.604-22.231l-16.844,2.791l-0.632-1.59
	c-1.074,2.083-3.291,4.472-0.241,5.455c-1.014,2.696-4.345-3.274-4.86,1.299c-1.634-2.743-3.015-5.563-8.06-7.399
	c0.051-3.116,11.018,8.401,12.263-1.605L230.855,78.77l-1.488-3.736l-2.962-7.434c-0.834,1.245-2.137,1.169-3.833-0.022
	c-0.785,2.358,4.566,2.532,4.336,4.69c-3.979,1.056-6.953-3.091-8.568-4.074c2.984-2.288,4.213-4.371,5.351-7.408L203.197,9.362
	l-0.025-0.047l-15.14,40.197c0.844,0.619,1.622,1.261,2.267,1.95c-2.134,0.68-3.275,4.15-4.637,6.991
	c1.167,4.241,4.981,2.386,4.898,6.271c-1.875,1.403-4.476,0.771-7.446-0.917c0.17-0.354,0.338-0.714,0.509-1.071
	c-0.193-0.126-0.329-0.095-0.506-0.177l-27.358,72.634l-45.548,7.522c0.809,2.933,1.1,7.693-3.701,4.678
	c0.698-1.473,1.397-2.946,2.095-4.412l-11.504,1.902c-0.114,0.272-0.224,0.538-0.291,0.797c-0.297-0.184-0.389-0.424-0.411-0.683
	l-5.556,0.917c0.508,1.188,0.869,2.402,0.316,3.369c-1.432-0.676-2.86-1.359-4.286-2.042c0.079-0.266,0.136-0.468,0.202-0.702
	l-12.512,2.067c0.578,1.163,0.468,2.983-1.972,1.043c-0.506,1.346-1.872-0.082,0,0c0.079-0.367,0.187-0.512,0.281-0.765
	l-27.883,4.608c0.019,0.032,0.009,0.019,0.028,0.057c0.126,0.266,0.054,0.114-0.028-0.057l-37.308,6.164l0.025,0.051l118.744,53.3
	l-36.016,95.614c3.765,2.439,7.197,4.994,12.437,6.896c-3.809,4.798-3.505,5.595-8.922,4.956c-0.505,1.902,2.689,2.485,4.394,3.61
	l11.517-8.863c0.101-0.467,0.329-0.986,0.405-1.441c0.36,0.184,0.452,0.468,0.468,0.771l42.213-32.466
	c-0.79-0.557-1.583-1.131-2.279-1.34c1.191-1.771-0.006-2.896,1.347-4.709c2.743,0.853,3.451,2.243,4.039,3.659l42.188-32.446
	c-0.288-2.056-1.41-2.933-3.989-1.605c-0.985-1.473-0.642-3.3,0.319-5.297c-4.829-1.486,1.574-3.193,0,0
	c1.284,0.448,2.26-0.209,3.243-0.867c2.083,2.048-0.897,5.449,4.385,6.645c-0.209,0.321-0.469,0.454-0.746,0.53l47.213,21.195
	c0.613-1.139,1.265-2.188,2.01-3.047c0.895,2.055,4.466,2.832,7.434,3.894c4.096-1.605,1.858-5.208,5.73-5.525
	c1.586,1.721,1.227,4.376-0.143,7.504c3.733-2.844,6.438,2.295,9.021-0.581c2.061,0.563,2.218,2.042,1.042,4.146
	c2.428,0.537,2.048-4.804,4.216-4.798c1.464,3.85-2.354,7.238-3.162,8.944c-3.557-3.755-6.331-4.279-11.907-5.479
	c-0.041,0.556,0.073,1.011,0.225,1.435l55.563,24.938l-31.011-77.878c-2.023,0.733-3.36-2.73-0.56-1.403l-11.229-28.206
	c-0.813-0.366-1.621-0.72-2.438-1.087c-0.395,1.65,1.824,2.289,2.285,3.616c-0.164,0.36-0.324,0.721-0.486,1.081
	c1.358,0.481-0.041,1.878,0,0c-0.951-0.139-1.665,0.348-2.055,1.688c-4.456-1.341-7.598-7.814-9.857-7.017
	c-0.25-7.143,7.614,4.646,8.318-4.071c2.298,1.954,3.233,0.341,4.991,0.898l8.04-6.183c-1.406-1.46-2.595-2.996-3.369-4.69
	c2.753-0.62,4.839,0.746,6.59,2.212l15.345-11.802c-0.158-0.057-0.243-0.398-0.104-1.441c1.937-2.27,1.26,0.025,0.593,1.068
	l44.176-33.977c0.193-0.543,0.387-1.084,0.576-1.625c0.351,0.123,0.702,0.25,1.053,0.373l7.421-5.708l38.452-29.571L395.399,95.517z
	 M44.946,157.298C44.475,156.305,45.252,157.93,44.946,157.298L44.946,157.298z M35.464,162.753
	C34.993,161.754,35.767,163.385,35.464,162.753L35.464,162.753z M37.044,158.278C33.767,161.564,34.844,153.385,37.044,158.278
	C37.411,156.887,38.918,158.157,37.044,158.278z M42.708,156.508C42.24,155.509,43.011,157.14,42.708,156.508L42.708,156.508z
	 M44.481,162.171c0.395-1.125,0.791-2.244,1.188-3.363c2.696,0.259,0.834,2.699,2.563,3.426
	C47.584,163.474,45.856,162.45,44.481,162.171z M46.854,155.452c1.271-1.233,3.129-1.233,5.272-0.651
	C52.054,158.562,48.925,155.901,46.854,155.452z M53.82,164.213c0.882-1.397,3.132,0.069,4.871,0.468
	C57.465,167.159,54.794,166.192,53.82,164.213z M59.554,158.695C53.88,158.05,62.623,153.891,59.554,158.695
	C60.948,159.062,59.665,160.56,59.554,158.695z M112.38,151.931c0.98,0.607,0.076,1.719-0.158,2.655
	C111.239,153.979,112.153,152.867,112.38,151.931z M110.102,198.096C111.135,197.728,109.438,198.329,110.102,198.096
	L110.102,198.096z M103.136,146.59c0.986,0.606,0.076,1.719-0.158,2.648C101.995,148.631,102.905,147.519,103.136,146.59z
	 M94.005,148.164C94.681,147.987,92.946,148.448,94.005,148.164L94.005,148.164z M95.307,153.031
	C94.242,153.309,95.986,152.841,95.307,153.031L95.307,153.031z M97.089,149.946C100.456,153.486,92.342,148.783,97.089,149.946
	L97.089,149.946z M99.893,147.456c-0.98-0.606-0.067-1.719,0.164-2.642C101.04,145.414,100.124,146.526,99.893,147.456z
	 M104.141,197.659c-0.278-0.215-0.37-0.291-0.578-0.455c-1.928-1.51-1.094-0.859,0,0c0.537,0.424,1.083,0.86,1.343,1.062
	C104.772,198.158,104.561,197.994,104.141,197.659z M104.713,155.724C105.392,155.541,103.651,156.008,104.713,155.724
	L104.713,155.724z M104.438,151.451C102.532,147.121,110.453,149.39,104.438,151.451L104.438,151.451z M109.302,150.155
	c1.39,1.808-0.933,1.953-1.783,3.078C106.129,151.425,108.449,151.28,109.302,150.155z M113.933,203.859
	c-0.948-0.157-2.134-0.979-2.655,0.051c4.937,1.094-1.309,3.313,0,0c-0.683-0.246-1.343-0.441-1.581,0.563
	c-2.626-0.847,0.281-3.666-1.684-4.741c2.99-1.017,2.316,5.044,5.812-1.176C114.928,199.94,114.729,201.793,113.933,203.859z
	 M112.333,161.501c1.568-1.713,2.933-4.21,5.458-2.326C116.524,162.02,115.168,164.51,112.333,161.501z M95.673,300.277
	C95.006,300.505,96.704,299.904,95.673,300.277L95.673,300.277z M102.453,294.304C101.79,294.538,103.486,293.931,102.453,294.304
	L102.453,294.304z M105.054,291.592c-1.027-0.518-0.209-1.706-0.057-2.648C106.031,289.468,105.206,290.65,105.054,291.592z
	 M113.834,306.282C115.99,310.188,109.333,312.553,113.834,306.282L113.834,306.282z M118.73,281.466
	C119.413,281.282,117.671,281.75,118.73,281.466L118.73,281.466z M123.275,285.461C123.955,285.283,122.213,285.745,123.275,285.461
	L123.275,285.461z M125.118,232.824C126.154,232.457,124.451,233.058,125.118,232.824L125.118,232.824z M145.317,234.549
	C144.653,234.777,146.351,234.176,145.317,234.549L145.317,234.549z M136.101,146.457
	C136.78,146.28,135.039,146.748,136.101,146.457L136.101,146.457z M134.321,149.542
	C137.691,153.082,129.574,148.391,134.321,149.542L134.321,149.542z M129.492,212.577
	C128.828,212.805,130.529,212.203,129.492,212.577L129.492,212.577z M128.123,223.739c1.027,0.525,0.203,1.708,0.051,2.656
	C127.144,225.87,127.962,224.688,128.123,223.739z M127.264,233.842C126.379,229.012,129.622,238.141,127.264,233.842
	L127.264,233.842z M127.207,231.187c0.341-0.707,0.68-1.422,1.021-2.136c0.711,0.34,1.429,0.676,2.143,1.017
	c-0.341,0.715-0.68,1.423-1.021,2.144C128.632,231.869,127.921,231.527,127.207,231.187z M129.966,236.445
	c-1.03-0.53-0.209-1.707-0.057-2.654C130.939,234.315,130.121,235.497,129.966,236.445z M130.879,229
	c-1.173-0.771,0.022-2.39,0.455-3.729C132.51,226.04,131.309,227.653,130.879,229z M132.671,239.044
	C132.004,239.277,133.702,238.67,132.671,239.044L132.671,239.044z M132.709,214.101c-1.03-0.524-0.215-1.708-0.057-2.648
	C133.683,211.97,132.864,213.158,132.709,214.101z M133.689,236.901C134.723,236.534,133.022,237.135,133.689,236.901
	L133.689,236.901z M135.832,237.919C132.188,234.663,140.655,238.689,135.832,237.919L135.832,237.919z M136.796,233.12
	c1.03,0.532,0.209,1.707,0.054,2.656C135.822,235.251,136.641,234.068,136.796,233.12z M136.237,231.541
	c-1.846-0.507,1.248-6.499,2.601-2.706C138.617,228.229,136.154,231.521,136.237,231.541z M139.046,239.447
	C138.383,239.682,140.08,239.075,139.046,239.447L139.046,239.447z M140.807,194.309
	C140.14,194.537,141.844,193.936,140.807,194.309L140.807,194.309z M142.611,231.944c-0.281,0.596-1.444,0.81-1.071-0.505
	C141.897,231.604,142.251,231.78,142.611,231.944C143.114,230.605,144.482,232.034,142.611,231.944z M145.424,239.846
	c-1.226-0.896-0.073-2.641,1.018-2.136C146.645,238.974,146.822,240.238,145.424,239.846z M146.948,236.636
	C143.307,233.387,151.771,237.406,146.948,236.636L146.948,236.636z M149.041,235.005
	C150.074,234.638,148.376,235.239,149.041,235.005L149.041,235.005z M151.73,210.011
	C152.767,209.645,151.066,210.245,151.73,210.011L151.73,210.011z M295.547,273.147c-0.373-0.134-0.749-0.267-1.119-0.398
	C294.65,272.122,295.78,271.8,295.547,273.147z M276.166,246.143C276.467,246.775,275.688,245.157,276.166,246.143L276.166,246.143z
	 M275.91,239.759C276.211,240.391,275.434,238.766,275.91,239.759L275.91,239.759z M285.032,144.851
	C283.971,145.136,285.711,144.668,285.032,144.851L285.032,144.851z M284.551,152.791
	C285.234,152.614,283.486,153.082,284.551,152.791L284.551,152.791z M284.165,141.609
	C284.845,141.432,283.104,141.893,284.165,141.609L284.165,141.609z M281.501,115.404
	C280.439,115.686,282.181,115.217,281.501,115.404L281.501,115.404z M277.503,119.942c-1.179,1.005-2.534,1.35-4.267,0.275
	C274.416,119.212,275.771,118.865,277.503,119.942z M272.642,121.242c-0.897,0.97-2.442-0.483-3.242,0.869
	C266.811,120.025,271.213,118.849,272.642,121.242z M284.007,144.257c-7.787-1.827-19.76-10.165-25.249-13.224
	C267.304,133.271,277.307,140.439,284.007,144.257z M270.072,163.613C270.758,163.436,269.014,163.897,270.072,163.613
	L270.072,163.613z M262.818,142.974c0.866-1.106,2.374,0.214,3.68,0.752c-0.633,1.959-1.925,1.479-3.243,0.873
	C263.95,143.828,263.413,143.397,262.818,142.974z M261.358,140.755C258.724,136.931,266.566,139.491,261.358,140.755
	C262.661,141.375,261.128,142.613,261.358,140.755z M258.502,152.816c0.397-0.689,0.793-1.378,1.188-2.061
	c0.686,0.398,1.37,0.796,2.057,1.188c-0.398,0.683-0.793,1.365-1.185,2.055C259.873,153.6,259.188,153.208,258.502,152.816z
	 M259.209,158.701c-1.002-1.182-1.35-2.535-0.271-4.267C259.943,155.61,260.287,156.963,259.209,158.701z M263.735,136.646
	C264.226,141.533,261.723,132.177,263.735,136.646L263.735,136.646z M266.767,148C265.708,148.277,267.449,147.816,266.767,148
	L266.767,148z M260.06,135.901C259.001,136.179,260.74,135.711,260.06,135.901L260.06,135.901z M258.597,133.682
	C259.279,133.499,257.538,133.966,258.597,133.682L258.597,133.682z M253.526,147.19c1.413,1.074-0.493,3.034-1.346,4.703
	c1.953,0.803,3.362-0.411,4.432-2.92c-0.572-0.329-0.69-1.504,0.59-1.024c0.424-0.594,0.856-1.125,1.621-0.43
	c0.2-0.348,0.396-0.689,0.595-1.037c-1.302-0.606,0.233-1.858,0,0c1.881,0.784,1.871,2.636-0.595,1.037
	c-0.416,0.588-0.856,1.125-1.621,0.43c-0.195,0.342-0.395,0.683-0.59,1.024c4.396,2.725-3.73,3.401,0.106,6.922
	c-1.286,1.663-3.116,1.321-5.293-0.322c0.865-1.384,0.821-2.535,0.755-3.679C247.807,149.782,253.179,150.579,253.526,147.19z
	 M256.046,168.619C255.568,169.972,254.174,168.582,256.046,168.619C259.58,165.598,257.851,173.663,256.046,168.619z
	 M254.459,166.912C255.142,166.735,253.396,167.203,254.459,166.912L254.459,166.912z M251.975,164.112
	C255.345,167.646,247.228,162.956,251.975,164.112L251.975,164.112z M249.852,146.444
	C248.789,146.723,250.53,146.255,249.852,146.444L249.852,146.444z M248.938,152.765c0.472,1.606,0.904,3.23,1.302,4.861
	c3.869,0.221,0.339,6.321-1.781,3.079c0.597-1.024,1.188-2.048,1.781-3.079C247.345,158.473,246.599,155.686,248.938,152.765z
	 M250.262,169.934C250.65,170.952,250.009,169.264,250.262,169.934L250.262,169.934z M246.678,163.79
	C248.16,158.954,249.873,165.357,246.678,163.79L246.678,163.79z M247.728,172.69C247.478,172.033,248.119,173.714,247.728,172.69
	L247.728,172.69z M248.568,167.626C247.512,167.911,249.251,167.443,248.568,167.626L248.568,167.626z M246.884,151.577
	C250.255,155.11,242.136,150.42,246.884,151.577L246.884,151.577z M244.67,153.038c-0.909,1.397-2.041,4.058-0.157,2.648
	c2.374,3.028-2.756,4.399-4.861,1.296c0.828-1.663,2.193-3.483-0.278-4.267c-0.609,1.302-1.858-0.228,0,0
	C240.846,151.729,242.677,152.07,244.67,153.038z M237.158,154.175c1.109,0.866-0.209,2.371-0.753,3.672
	c1.101,0.86,1.957,0.834,2.648,0.165c2.688,2.453-2.253,1.631-2.376,4.109C232.654,160.591,235.313,157.279,237.158,154.175z
	 M233.05,151.805c1.864-5.607,6.561,1.264,2.061,1.188C234.424,152.588,233.735,152.197,233.05,151.805z M242.167,179.302
	c-0.499,1.043-1.7,0.253-2.651,0.114C240.019,178.379,241.223,179.163,242.167,179.302z M240.856,173.518
	C241.248,174.548,240.604,172.861,240.856,173.518L240.856,173.518z M225.776,105.116c1.109,0.863-0.215,2.374-0.749,3.673
	C223.918,107.929,225.243,106.418,225.776,105.116z M225.894,112.035C224.831,112.316,226.57,111.854,225.894,112.035
	L225.894,112.035z M221.767,83.612C220.704,83.896,222.445,83.428,221.767,83.612L221.767,83.612z M223.371,144.839
	c2.09-6.233,10.49-11.227,14.522-20.386c4.313,7.561-5.922,10.411-7.006,19.248c-0.345-0.202-0.69-0.404-1.03-0.594
	c-0.692,0.657-1.201,2.004-2.216,1.454C226.476,145.61,225.104,145.894,223.371,144.839c-0.701,1.34,0.5,2.187-0.752,3.672
	C221.118,147.651,218.949,142.058,223.371,144.839z M224.241,148.075C224.92,147.898,223.176,148.366,224.241,148.075
	L224.241,148.075z M223.833,194.884c-0.029-0.057-0.016-0.032-0.034-0.077C223.883,194.991,223.969,195.168,223.833,194.884z
	 M220.16,110.091C220.84,109.911,219.104,110.378,220.16,110.091L220.16,110.091z M217.224,79.613
	C217.903,79.43,216.166,79.901,217.224,79.613L217.224,79.613z M215.909,124.522C216.943,124.159,215.246,124.762,215.909,124.522
	L215.909,124.522z M212.328,104.431C214.484,108.34,207.827,110.704,212.328,104.431L212.328,104.431z M208.759,111.931
	c1.031,0.524,0.207,1.707,0.059,2.652C207.787,114.058,208.602,112.875,208.759,111.931z M207.985,161.982
	C206.92,162.26,208.664,161.792,207.985,161.982L207.985,161.982z M203.568,195.256
	C203.871,195.889,203.093,194.265,203.568,195.256L203.568,195.256z M202.439,34.069C203.059,32.77,204.303,34.303,202.439,34.069
	L202.439,34.069z M202.663,212.135c-0.983-0.607-0.073-1.72,0.159-2.655C203.805,210.092,202.894,211.205,202.663,212.135z
	 M199.815,195.188c0.62,1.561,3.998,1.813,2.165,4.544C201.361,198.172,197.976,197.924,199.815,195.188z M196.267,89.446
	c-0.946-0.161-1.676,0.303-2.089,1.634C190.716,88.782,199.354,83.564,196.267,89.446z M195.776,176.635
	c-0.983-0.607-0.069-1.72,0.159-2.649C196.92,174.586,196.01,175.699,195.776,176.635z M191.238,168.366
	c-1.622,0.455-2.217,3.793-4.745,1.682C188.111,169.593,188.706,166.255,191.238,168.366z M190.561,218.835
	c-1.005-1.176-1.346-2.522-0.274-4.261C191.291,215.75,191.638,217.108,190.561,218.835z M190.782,172.089
	C190.118,172.323,191.815,171.716,190.782,172.089L190.782,172.089z M189.057,192.286
	C190.09,191.92,188.396,192.526,189.057,192.286L189.057,192.286z M186.889,218.089
	C187.568,217.899,185.827,218.373,186.889,218.089L186.889,218.089z M185.95,196.065c0.205,1.265,0.379,2.528-1.024,2.143
	C183.709,197.304,184.859,195.56,185.95,196.065z M183.244,193.461c1.028,0.531,0.209,1.707,0.051,2.655
	C182.268,195.591,183.086,194.41,183.244,193.461z M183.58,202.476C182.521,202.754,184.259,202.292,183.58,202.476L183.58,202.476z
	 M182.628,189.226C183.665,188.86,181.967,189.466,182.628,189.226L182.628,189.226z M182.186,109.8
	C181.677,111.15,180.312,109.724,182.186,109.8L182.186,109.8z M180.943,184.485C180.28,184.726,181.98,184.118,180.943,184.485
	L180.943,184.485z M179.414,187.702C175.772,184.447,184.24,188.475,179.414,187.702L179.414,187.702z M180.083,194.586
	c-1.03-0.524-0.211-1.707-0.053-2.648C181.057,192.463,180.239,193.638,180.083,194.586z M177.89,88.394
	c-0.199,0.344-0.398,0.686-0.597,1.027C176.721,89.099,176.613,87.919,177.89,88.394z M170.719,110.287
	c0.933-1.921,2.405-1.811,4.264-0.271c0.974-2.288-4.349-2.892-3.944-5.022c4.052-0.733,6.688,3.638,8.218,4.75
	c-4.343,2.807-5.364,5.442-7.564,10.702c-0.679-0.396-1.365-0.793-2.047-1.188C167.527,115.069,173.07,113.346,170.719,110.287z
	 M171.354,182.551C172.388,182.184,170.69,182.792,171.354,182.551L171.354,182.551z M159.015,154.232
	C159.698,154.049,157.959,154.51,159.015,154.232L159.015,154.232z M158.67,211.995C158.007,212.229,159.704,211.629,158.67,211.995
	L158.67,211.995z M156.541,253.987C154.119,250.972,160.804,249.184,156.541,253.987
	C161.996,255.649,152.64,258.152,156.541,253.987z M160.055,257.395C162.059,262.091,153.335,256.825,160.055,257.395
	L160.055,257.395z M159.284,216.23c-2.591-1.429,1.41-3.779,2.039-4.292C164.192,214.17,159.205,213.746,159.284,216.23z
	 M162.422,150.711C163.102,150.534,161.363,150.996,162.422,150.711L162.422,150.711z M164.467,228.424
	C163.405,228.708,165.146,228.241,164.467,228.424L164.467,228.424z M163.516,215.611c-1.224-0.904-0.07-2.643,1.021-2.138
	C165.864,214.688,163.98,214.359,163.516,215.611z M163.832,162.488c1.109,0.866-0.215,2.377-0.752,3.679
	C161.97,165.307,163.294,163.79,163.832,162.488z M166.095,151.463C165.033,151.754,166.777,151.286,166.095,151.463
	L166.095,151.463z M163.335,144.39c-0.986-1.473-0.641-3.3,0.32-5.297c0.932,0.234,2.042,1.145,2.651,0.158
	c-4.836-1.479,1.568-3.192,0,0c0.657,0.304,1.302,0.557,1.618-0.429c2.551,1.062-0.575,3.628,1.299,4.86
	C166.158,144.459,167.318,138.467,163.335,144.39z M167.011,145.148C165.953,145.433,167.691,144.965,167.011,145.148
	L167.011,145.148z M167.223,188.475c-1.533-1.688,0.774-2.017,1.53-3.218C170.286,186.951,167.982,187.279,167.223,188.475z
	 M169.442,234.037c-0.983-0.601-0.07-1.713,0.158-2.648C170.586,231.995,169.673,233.114,169.442,234.037z M171.967,186.793
	C174.215,190.958,166.139,189.328,171.967,186.793L171.967,186.793z M173.652,191.526c-1.027-0.518-0.208-1.7-0.051-2.648
	C174.628,189.403,173.807,190.586,173.652,191.526z M174.265,195.763C175.302,195.396,173.604,196.002,174.265,195.763
	L174.265,195.763z M174.313,167.804c-2.001,2.055-0.667-4.412,0.404-6.378c0.639,1.113,1.296,2.206,2.14,1.024
	C179.572,164.852,174.18,164.479,174.313,167.804z M176.869,193.063c-1.03-0.524-0.211-1.713-0.054-2.654
	C177.843,190.934,177.021,192.115,176.869,193.063z M176.133,220.093c-1.141-0.999,0.146-2.637,1.189-2.055
	C178.554,219.358,176.692,218.88,176.133,220.093z M182.391,204.523c-1.188,2.061-2.377,4.115-3.563,6.17
	C177.982,208.936,176.683,200.256,182.391,204.523z M179.376,219.228C180.055,219.05,178.313,219.512,179.376,219.228
	L179.376,219.228z M192.954,240.781c-2.525,2.415-0.088,3.496-1.94,5.729c-1.812-1.353-2.937-0.152-4.704-1.348
	c-0.613,1.303-1.859-0.233,0,0c0.591-1.03,1.186-2.054,1.783-3.084c-1.602-0.563-2.472,1.58-3.837,1.896
	c-0.341-0.195-0.682-0.398-1.027-0.588c-0.613,1.297-1.858-0.24,0,0c0.237-0.936-0.167-1.693-1.46-2.225
	c1.789-4.292,8.555-6.751,7.99-9.077C196.889,232.577,184.356,239.177,192.954,240.781z M199.92,231.104
	c-6.186-2.813,5.543-5.909-1.574-9.133c-0.238,0.928,0.17,1.693,1.46,2.212c-5.039,5.701-7.83,0.828-12.103,6.713
	c-1.264-6.32,7.364-15.284,8.796-22.327c-1.302-0.606,0.23-1.857,0,0c1.35,0.797-0.102,2.34,0.866,3.243
	c3.897-0.265-1.287-5.379,0.483-7.945c1.365,0.796,2.737,1.587,4.105,2.377c-1.621,4.197-1.031,3.546-3.723,8.813
	c1.002,1.301,4.665,4.069,6.163,3.564C204.989,224.006,202.492,224.865,199.92,231.104z M204.92,189.935
	c0.499-1.043,1.7-0.252,2.651-0.114C207.072,190.857,205.868,190.066,204.92,189.935z M208.662,218.342
	C209.345,218.165,207.603,218.632,208.662,218.342L208.662,218.342z M208.551,211.426
	C207.489,211.71,209.231,211.236,208.551,211.426L208.551,211.426z M203.987,166.521c1.515-1.915,3.642-1.542,5.458-2.326
	C211.643,167.506,206.026,168.36,203.987,166.521z M211.857,227.039C210.559,226.427,212.089,225.182,211.857,227.039
	C214.493,230.87,206.648,228.316,211.857,227.039z M211.149,221.148C210.093,221.434,211.832,220.972,211.149,221.148
	L211.149,221.148z M211.336,168.025C212.019,167.848,210.277,168.316,211.336,168.025L211.336,168.025z M215.979,213.5
	C215.508,212.507,216.281,214.132,215.979,213.5L215.979,213.5z M216.914,203.765C216.443,202.767,217.217,204.396,216.914,203.765
	L216.914,203.765z M217.708,159.377c-1.03-0.594-0.74-1.542-1.461-2.212c-1.596,2.693-2.759,6.985-6.049,3.351
	c3.972-1.062,1.194-7.213,5.616-4.975c1.95-3.888,0.865-4.753,4.152-7.187c-1.295-0.613,0.234-1.859,0,0
	c2.89,1.251,2.554,3.375,0.711,5.885c0.572,0.335,0.683,1.511-0.593,1.03c-0.2,0.341-0.398,0.683-0.599,1.024
	c0.671,0.689,0.702,1.555-0.158,2.655C218.669,158.638,218.023,158.391,217.708,159.377z M221.456,201.59
	C221.759,202.229,220.981,200.604,221.456,201.59L221.456,201.59z M220.271,204.953C217.41,208.911,220.539,200.074,220.271,204.953
	L220.271,204.953z M218.943,215.802c1.523-1.695,2.086,0.562,3.353,1.193C220.771,218.695,220.208,216.434,218.943,215.802z
	 M222.041,210.611c0.417-1.075,1.675-0.386,2.633-0.323C224.257,211.362,222.998,210.668,222.041,210.611z M223.229,207.254
	c0.414-1.074,1.675-0.379,2.636-0.328C225.445,208.007,224.183,207.317,223.229,207.254z M224.421,203.903
	c0.41-1.08,1.672-0.384,2.63-0.328C226.63,204.649,225.372,203.962,224.421,203.903z M225.603,200.548
	c0.418-1.081,1.678-0.386,2.633-0.329C227.821,201.3,226.563,200.604,225.603,200.548z M228.823,209.239
	C229.12,209.871,228.35,208.24,228.823,209.239L228.823,209.239z M227.912,197.583c1.239-0.329,2.479-0.633,2.235,0.795
	C229.376,199.688,227.524,198.721,227.912,197.583z M230.824,242.666C231.128,243.311,230.347,241.68,230.824,242.666
	L230.824,242.666z M231.497,168.721C230.432,168.998,232.174,168.53,231.497,168.721L231.497,168.721z M232.841,164.017
	c-0.421,0.594-0.854,1.125-1.622,0.43c-0.591,1.024-1.185,2.054-1.779,3.084c-1.334-0.796,0.335-3.603,1.779-3.084
	C231.643,163.853,232.079,163.322,232.841,164.017c0.24-0.935-0.168-1.694-1.457-2.212c-2.554-0.885-3.348,4.817-5.187,6.593
	c-4.549-3.117,3.283-6.947,4.317-9.836c1.918,2.472,1.991,1.605,5.571,4.589C235.198,164.169,234.02,164.087,232.841,164.017z
	 M234.531,199.277C234.282,198.626,234.923,200.301,234.531,199.277L234.531,199.277z M236.693,200.25
	c2.171,0.968,4.337,1.94,6.501,2.907C241.539,204.183,233.036,206.369,236.693,200.25z M245.316,230.188
	C244.844,229.189,245.619,230.819,245.316,230.188L245.316,230.188z M249.718,194.378
	C249.469,193.721,250.112,195.409,249.718,194.378L249.718,194.378z M249.674,217.88c-0.777,1.309-2.624,0.349-2.237-0.79
	C248.508,215.637,248.379,217.546,249.674,217.88z M245.871,191.363c1.072-1.126,2.384-1.606,4.217-0.721
	C249.022,191.767,247.712,192.248,245.871,191.363z M246.572,223.07C246.874,223.715,246.103,222.085,246.572,223.07L246.572,223.07
	z M246.244,220.44c1.926-3.084,2.014,1.922,4.476,1.586C249.567,224.751,246.816,221.016,246.244,220.44z M250.164,252.033
	C250.461,252.666,249.687,251.047,250.164,252.033L250.164,252.033z M248.719,249.013c0.415-1.088,1.673-0.393,2.633-0.33
	C250.935,249.759,249.674,249.063,248.719,249.013z M250.66,203.898c1.185-1.359,0.9,0.537,2.168,0.967
	C251.949,206.104,250.187,204.998,250.66,203.898z M251.631,201.729C251.381,201.072,252.022,202.754,251.631,201.729
	L251.631,201.729z M239.257,185.8C238.785,187.153,237.386,185.763,239.257,185.8c0.66-1.429,2.342-0.139,3.139-1.201
	c-0.664-3.843-5.213,1.839-7.952,0.348c0.647-1.448,1.292-2.889,1.938-4.336c4.346,1.183,3.635,0.664,9.149,2.801
	c1.198-1.138,3.571-5.063,2.904-6.499c5.297-1.151,6.417,1.239,12.886,3.161c-2.158,6.441-6.447-4.905-8.925,2.503
	c0.951,0.139,1.668-0.341,2.054-1.675c6.192,4.418,1.631,7.7,7.925,11.347C256.22,194.158,246.412,186.496,239.257,185.8z
	 M262.316,215.611C262.705,216.635,262.066,214.953,262.316,215.611L262.316,215.611z M261.416,252.242
	c0.414-1.074,1.675-0.379,2.632-0.322C263.632,252.995,262.37,252.306,261.416,252.242z M270.758,254.297
	C271.062,254.935,270.284,253.304,270.758,254.297L270.758,254.297z M271.549,252.06
	C266.839,253.438,275.584,249.266,271.549,252.06L271.549,252.06z M273.926,245.347C273.454,244.36,274.231,245.99,273.926,245.347
	L273.926,245.347z M274.722,243.108C271.858,247.078,274.987,238.235,274.722,243.108L274.722,243.108z M275.647,233.373
	c-0.771,1.314-2.623,0.343-2.23-0.796C274.652,232.248,275.892,231.944,275.647,233.373z M273.855,249.101
	c-0.414,1.074-1.675,0.379-2.633,0.328C271.641,248.349,272.901,249.045,273.855,249.101z M272.295,232.186
	C269.435,236.143,272.565,227.305,272.295,232.186L272.295,232.186z M270.454,230.276
	C269.984,229.284,270.758,230.908,270.454,230.276L270.454,230.276z M270.389,234.024
	C270.686,234.663,269.908,233.033,270.389,234.024L270.389,234.024z M272.484,242.324c-0.417,1.075-1.682,0.379-2.637,0.329
	C270.265,241.566,271.523,242.261,272.484,242.324z M268.915,252.388c-0.742-0.265-1.488-0.531-2.237-0.797
	c0.271-0.745,0.528-1.491,0.794-2.237c0.746,0.266,1.491,0.531,2.236,0.797C269.443,250.896,269.182,251.642,268.915,252.388z
	 M268.078,236.989c0.619,0.216,0.948,1.353-0.392,1.112c-0.063,0.962,0.471,1.638,1.836,1.909c-1.925,3.679-8.009-4.374-1.836-1.909
	C267.813,237.734,267.945,237.355,268.078,236.989C266.69,236.623,267.971,235.118,268.078,236.989z M267.389,210.08
	c-0.499,1.043-1.697,0.246-2.65,0.12C265.24,209.156,266.444,209.947,267.389,210.08z M265.376,241.061
	c-0.582,0.277,2.946,2.389,2.962,2.313C268.019,245.257,261.741,242.793,265.376,241.061z M266.356,248.962
	c-0.646,1.239-2.375,0.222-3.749-0.07C263.246,247.647,264.975,248.671,266.356,248.962z M263.803,153.132
	C262.74,153.417,264.481,152.949,263.803,153.132L263.803,153.132z M266.014,151.672c-0.322,0.569-1.5,0.689-1.03-0.588
	c-6.086-2.042,0.592-3.831,0,0C265.328,151.28,265.674,151.476,266.014,151.672C266.627,150.37,267.873,151.906,266.014,151.672z
	 M268.981,146.539C267.924,146.823,269.664,146.356,268.981,146.539L268.981,146.539z M276.369,184.208
	c-1.363,1.13-3.218,0.979-5.304,0.226c-0.978,4.957-3.341-1.238,0,0c0.315-1.32-0.442-2.225-1.198-3.134
	c1.823-2.282,5.519,0.328,6.159-5.045c1.663,0.86-0.388,3.142,2.276,3.616C275.676,180.225,274.58,181.464,276.369,184.208z
	 M278.888,167.336C273.312,162.956,282.668,170.3,278.888,167.336L278.888,167.336z M280.072,165.281
	c-4.156-3.261-0.021-0.019,0.791,0.62C280.73,165.8,280.509,165.623,280.072,165.281z M281.855,162.197
	C285.228,165.737,277.111,161.046,281.855,162.197L281.855,162.197z M284.823,157.064
	C279.251,152.683,288.606,160.035,284.823,157.064L284.823,157.064z M285.736,150.743
	C286.416,150.559,284.674,151.021,285.736,150.743L285.736,150.743z M287.52,147.658
	C286.457,147.942,288.198,147.481,287.52,147.658L287.52,147.658z M345.681,120.651
	C345.981,121.292,345.207,119.664,345.681,120.651L345.681,120.651z M332.4,108.397C332.7,109.039,331.928,107.411,332.4,108.397
	L332.4,108.397z M305.607,121.112C306.283,120.932,304.545,121.396,305.607,121.112L305.607,121.112z M302.797,123.6
	C303.477,123.419,301.735,123.884,302.797,123.6L302.797,123.6z M301.834,139.491c0.986,0.607,0.069,1.719-0.158,2.642
	C300.692,141.533,301.605,140.42,301.834,139.491z M300.986,162.298c-0.983-0.607-0.069-1.719,0.157-2.655
	C302.127,160.25,301.214,161.362,300.986,162.298z M299.731,147.866c-0.686-0.398-1.368-0.79-2.054-1.188
	c0.395-0.683,0.793-1.372,1.188-2.054c0.686,0.398,1.371,0.79,2.054,1.188C300.524,146.495,300.13,147.184,299.731,147.866z
	 M298.977,151.54c-0.396,0.695-0.79,1.372-1.183,2.054c-1.03-0.588-2.054-1.182-3.084-1.776c0.597-1.03,1.188-2.055,1.782-3.085
	C298.315,149.403,297.699,150.724,298.977,151.54z M299.829,128.739C298.768,129.023,300.509,128.555,299.829,128.739
	L299.829,128.739z M299.665,131.387C294.097,127.007,303.448,134.358,299.665,131.387L299.665,131.387z M297.662,120.632
	C296.6,120.916,298.341,120.448,297.662,120.632L297.662,120.632z M298.479,133.435
	C301.853,136.975,293.735,132.285,298.479,133.435L298.479,133.435z M296.7,136.52C300.477,139.491,291.126,132.14,296.7,136.52
	L296.7,136.52z M295.509,138.575C289.94,134.194,299.292,141.545,295.509,138.575L295.509,138.575z M292.541,143.713
	C286.973,139.327,296.324,146.685,292.541,143.713L292.541,143.713z M291.672,140.471
	C292.357,140.288,290.609,140.755,291.672,140.471L291.672,140.471z M290.904,118.093
	C289.001,113.764,296.919,116.033,290.904,118.093L290.904,118.093z M290.763,146.786
	C294.131,150.325,286.012,145.635,290.763,146.786L290.763,146.786z M288.417,115.29C289.096,115.11,287.357,115.575,288.417,115.29
	L288.417,115.29z M288.774,162.083c0.591-1.024,1.185-2.048,1.779-3.072c2.398,0.796,2.31,2.27,3.514,3.401
	C293.318,166.09,290.728,162.904,288.774,162.083z M291.742,156.95c0.591-1.024,1.188-2.055,1.782-3.078
	c2.604,0.752,0.325,2.8,1.893,3.836C294.555,158.809,293.044,157.494,291.742,156.95z M295.917,169.555
	C295.664,168.897,296.313,170.579,295.917,169.555L295.917,169.555z M295.689,164.257c0.496-1.037,1.704-0.246,2.651-0.114
	C297.842,165.181,296.634,164.39,295.689,164.257z M300.069,168.619c-1.826-0.67-1.203-1.997-2.484-2.807
	c0.396-0.689,0.788-1.378,1.186-2.055c1.027,0.588,2.052,1.182,3.082,1.777C301.258,166.565,300.664,167.595,300.069,168.619z
	 M306.009,158.341c-1.372-0.784-2.74-1.581-4.105-2.37c2.524-2.978,3.265-0.67,4.86-1.302
	C307.873,155.534,306.55,157.045,306.009,158.341z M304.32,142.297C303.259,142.582,305.003,142.108,304.32,142.297L304.32,142.297z
	 M304.802,134.346c1.03,0.6,2.057,1.195,3.084,1.795C307.661,140.003,301.562,136.476,304.802,134.346z M326.994,116.558
	C324.764,120.815,330.282,110.271,326.994,116.558L326.994,116.558z M330.349,117.743C328.117,122,333.636,111.469,330.349,117.743
	L330.349,117.743z M332.586,118.536c0.572-1.093,0.865-1.656,0.992-1.896C333.14,117.48,331.069,121.434,332.586,118.536z
	 M335.94,119.721C333.079,123.682,336.211,114.844,335.94,119.721L335.94,119.721z M337.969,131.767
	c-3.761-0.057-1.097-3.186-0.65-5.263c1.114,0.392,2.234,0.797,3.352,1.188C340.319,130.196,338.857,130.379,337.969,131.767z
	 M341.534,121.703C344.821,115.429,339.303,125.97,341.534,121.703L341.534,121.703z M342.836,132.234
	c-1.246-0.645-0.218-2.371,0.07-3.749c1.118,0.392,2.239,0.793,3.355,1.185C346.001,132.374,343.563,130.502,342.836,132.234z
	 M347.915,121.444C348.223,122.085,347.445,120.461,347.915,121.444L347.915,121.444z M348.989,104.206
	C349.29,104.838,348.516,103.223,348.989,104.206L348.989,104.206z M351.27,122.632C350.797,121.646,351.575,123.271,351.27,122.632
	L351.27,122.632z M352.716,125.663C349.856,129.624,352.987,120.783,352.716,125.663L352.716,125.663z M353.579,119.674
	C353.883,120.315,353.105,118.682,353.579,119.674L353.579,119.674z M356.61,118.229
	C356.906,118.862,356.133,117.237,356.61,118.229L356.61,118.229z M373.08,100.151c1.579-2.927,3.54,1.186,1.447,3.034
	C373.408,102.477,374.56,100.688,373.08,100.151z M376.688,107.727c-1.2-0.977-1.788-2.248-1.043-4.15
	C376.848,104.55,377.435,105.824,376.688,107.727z M384.66,102.992C384.187,102.006,384.964,103.634,384.66,102.992L384.66,102.992z
	"/>
<path opacity="0.03" fill="#FFFFFF" d="M327.444,52.954c-1.437-1.353-2.886-2.687-4.369-3.995c-1.179-0.392-2.462-0.806-3.82-1.226
	c2.576,2.294,5.085,4.656,7.503,7.105C327.021,54.142,327.231,53.548,327.444,52.954z M325.131,52.388
	C325.434,53.02,324.656,51.405,325.131,52.388L325.131,52.388z M150.052,341.334c4.605-6.771,8.761-13.647,14.482-20.81
	c-29.008-9.103-54.034-26.049-73.058-48.067c-1.792,10.229-8.426,19.584-9.602,29.932c1.991,2.049,4.033,4.052,6.125,6.005
	c0.126-0.329,0.253-0.594,0.382-1.074c4.678,2.781,8.306,5.947,14.491,8.198c-1.157,1.46-1.921,2.509-2.595,3.301
	c9.51,7.357,19.811,13.799,30.826,19.114c2.952-3.263,6.207-6.883,8.296-11.625c3.17,5.551-1.511,8.578-4.649,13.295
	c3.957,1.795,7.98,3.481,12.099,4.993c0.825-0.897,1.625-1.58,2.184-1.765C149.277,341.972,149.635,341.541,150.052,341.334z
	 M95.673,300.277C95.006,300.505,96.704,299.904,95.673,300.277L95.673,300.277z M102.453,294.304
	C101.79,294.538,103.486,293.931,102.453,294.304L102.453,294.304z M105.054,291.592c-1.027-0.518-0.209-1.706-0.057-2.648
	C106.031,289.468,105.206,290.65,105.054,291.592z M110.323,316.435c-1.03-0.524-0.215-1.707-0.057-2.655
	C111.296,314.311,110.471,315.486,110.323,316.435z M113.834,306.282C115.99,310.188,109.333,312.553,113.834,306.282
	L113.834,306.282z M117.416,326.37C118.452,326.006,116.751,326.611,117.416,326.37L117.416,326.37z M121.666,311.946
	C120.61,312.225,122.346,311.757,121.666,311.946L121.666,311.946z M127.4,313.887C126.337,314.171,128.076,313.704,127.4,313.887
	L127.4,313.887z M126.534,310.644c-1.109-0.858,0.215-2.376,0.752-3.679C128.396,307.824,127.067,309.343,126.534,310.644z
	 M147.94,325.758c-1.015,2.699-4.346-3.268-4.861,1.295c-1.634-2.743-3.015-5.562-8.059-7.394c0.05-3.205,11.678,9.126,12.374-2.441
	C151.796,318.938,143.026,324.179,147.94,325.758z M148.541,345.195c2.27,0.81,4.555,1.582,6.868,2.289
	c-0.831-0.632-1.64-1.808-3.296-2.87C150.374,344.241,149.287,344.552,148.541,345.195z M135.684,26.939
	c-1.065,0.035-1.972,0.455-2.573,1.476C133.967,27.925,134.814,27.416,135.684,26.939z M382.106,170.427
	c-0.581-0.265-1.164-0.524-1.745-0.784c0.292-1.182,0.943-1.447,1.556-1.808c-1.77-25.184-8.925-49.21-20.531-70.687
	c-0.478,2.029-1.078,4.089-1.764,6.15c4.068,9.27,7.263,18.96,9.526,28.961c0.178-0.341,0.436-0.834,0.707-1.347
	c0.336-0.648,0.576-1.103,0.658-1.261c-0.102,0.199-0.374,0.714-0.658,1.261c-0.119,0.224-0.201,0.386-0.366,0.689
	c-0.178,0.354-0.259,0.493-0.341,0.658c0.442,1.972,0.846,3.951,1.213,5.942c0.916,0.329,1.827,0.657,2.743,0.973
	c-0.53,1.499-1.062,2.99-1.587,4.482c-0.095-0.019-0.131-0.076-0.221-0.101c1.062,7.073,1.664,14.267,1.764,21.562
	c0.07,0.013,0.139,0.038,0.202,0.051c-0.05,0.101-0.132,0.113-0.195,0.183c0.107,8.363-0.417,16.845-1.669,25.393
	c-0.328,2.288-0.739,4.551-1.163,6.801c2.313-5.499,5.146-10.885,6.96-15.02c-0.804,6.271-5.354,15.525-8.465,21.998
	c-0.474,2.035-0.998,4.045-1.555,6.037c2.77,1.529,5.323,2.497,8.735,3.888c0.513,1.105-0.467,2.787,0.203,3.837
	c0.53,0.284,1.062,0.563,1.592,0.853c0.153-1.846-0.379-3.438-0.227-5.297c-1.194-0.739-3.16-1.188-2.757-2.528
	c-5.605-1.094,3.44-4.552,0,0c1.188,0.732,3.148,1.183,2.757,2.528c2.97,0.304,0.605-3.45,2.408-4.602
	c0.209-1.239,0.455-2.452,0.639-3.704C382.252,193.689,382.745,181.938,382.106,170.427z M372.125,131.273
	C371.651,130.284,372.436,131.918,372.125,131.273L372.125,131.273z M369.307,208.886
	C369.69,209.909,369.059,208.229,369.307,208.886L369.307,208.886z M371.354,207.204
	C371.102,206.547,371.753,208.229,371.354,207.204L371.354,207.204z M371.727,203.469
	C376.525,202.476,367.479,205.934,371.727,203.469L371.727,203.469z M376.057,205.408
	C372.517,208.424,374.256,200.358,376.057,205.408C376.53,204.049,377.935,205.446,376.057,205.408z M373.155,162.52
	C373.541,163.543,372.897,161.855,373.155,162.52L373.155,162.52z M374.547,182.64C374.307,181.976,374.938,183.664,374.547,182.64
	L374.547,182.64z M375.772,174.087C378.34,170.022,371.992,180.08,375.772,174.087L375.772,174.087z M376.032,167.708
	c0.322-0.727,0.639-1.454,0.967-2.174c0.722,0.329,1.44,0.645,2.162,0.973c-0.323,0.721-0.646,1.441-0.974,2.162
	C377.473,168.354,376.746,168.025,376.032,167.708z M379.021,175.541C382.196,171.824,378.364,180.383,379.021,175.541
	L379.021,175.541z M377.682,181.438C378.073,182.469,377.429,180.781,377.682,181.438L377.682,181.438z M379.679,203.133
	c-0.833-0.619-1.213-0.038-1.567,0.595c-1.194-0.746-0.038-2.383,0.367-3.736C380.495,200.414,380.147,201.755,379.679,203.133z
	 M380.223,178.676C379.971,178.019,380.614,179.707,380.223,178.676L380.223,178.676z M381.02,197.229
	C381.411,198.253,380.768,196.572,381.02,197.229L381.02,197.229z M366.442,213.222c-1.35,4.551-2.901,9.002-4.621,13.356
	c0.243,0.051,0.449,0.113,0.813,0.12c-0.407,0.304-0.813,0.606-1.217,0.91c-1.22,3.034-2.503,6.031-3.895,8.957
	c1.506,0.209,3.016,0.354,4.537,0.36c-1.132,2.529-2.257,5.051-3.396,7.573c-0.928-5.841-2.112-2.503-4.236-1.82
	c-2.766,5.222-5.797,10.266-9.093,15.101c3.459-1.902,6.051,3.698-0.165,0.233c-33.49,48.966-92.953,77.386-155.616,68.245
	c-5.3-0.777-10.5-1.814-15.595-3.078c-0.91,0.651-2.304-0.488-3.053,0.777c-0.923-0.74-0.936-1.354-0.534-1.744
	c-0.853-0.235-1.707-0.469-2.554-0.715c-0.777,0.562-1.666,0.7-2.643,0.525c1.378,1.654-0.098,4.077,0.708,5.89
	c0.42-0.593,0.856-1.13,1.621-0.442c0.777-1.871,2.626-1.871,1.027,0.595c0.344,0.202,0.686,0.404,1.027,0.601
	c0.614-1.302,1.859,0.233,0,0c-0.688,0.663-1.198,2.004-2.212,1.46c-0.617,1.303-1.859-0.228,0,0
	c0.392-0.683,0.787-1.377,1.185-2.061c-0.341-0.189-0.686-0.393-1.027-0.595c-0.417,0.595-0.854,1.132-1.621,0.442
	c-0.591,1.025-1.189,2.048-1.783,3.073c-1.346-0.797,0.104-2.34-0.863-3.236c-5.231,5.341-6.498,8.419-9.343,13.779
	c-1.16,0.393-2.728-0.751-3.843-0.195c-0.341,0.499-0.673,1.004-1.018,1.497c1.827,0.348,3.467-0.024,5.294,0.323
	c0.863-1.112,1.511-3.016,2.81-2.485c1.663-5.46,4.163,3.895,0,0c-0.86,1.113-1.508,3.016-2.81,2.485
	c-0.689,3.355,4.652,0.26,4.542,3.995c-0.822,0.5-1.435,0.727-1.953,0.784c1.208,0.359,2.434,0.683,3.654,1.018
	c0.117-0.203,0.237-0.412,0.354-0.619c-1.299-0.607,0.234-1.854,0,0c0.692,0.289,1.033,0.695,1.185,1.048
	c6.47,1.72,13.085,3.124,19.871,4.115c5.61,0.816,11.195,1.334,16.746,1.613c-0.835-0.481-1.673-0.962-2.506-1.442
	c0.593-1.023,1.185-2.049,1.779-3.084c1.827,0.67,1.208,1.99,2.484,2.807c-0.339,0.6-0.679,1.188-1.021,1.769
	c15.838,0.733,31.354-0.738,46.259-4.096c0.02-0.013,0.035-0.013,0.055-0.013c1.339-0.304,2.68-0.605,4.01-0.94
	c-1.725-0.158-3.204-0.493-3.283-2.454c1.34-1.181,4.811-0.051,7.329,1.373c6.358-1.757,12.586-3.868,18.664-6.315
	c-0.301-0.172-0.725-0.284-1.502-0.228c2.402-2.104,4.918-3.976,5.8-9.274c1.922-0.328-1.002,4.59-1.021,8.188
	c7.156-3.054,14.075-6.587,20.734-10.537c-0.216,0.012-0.434-0.015-0.651,0.005c0.927-2.609,1.849-5.215,2.775-7.831
	c1.88,7.763,2.889-1.176,7.017,2.036c16.641-11.316,31.295-25.47,43.242-41.873c-0.1-0.019-0.132-0.037-0.242-0.063
	c2.289-4.937,5.063-8.875,6.662-15.253c1.059,0.677,1.891,1.17,2.61,1.625c6.141-10.36,11.243-21.455,15.187-33.161
	c-3.146-2.264-6.624-4.551-10.84-5.916c4.603-3.3,7.875-0.267,12.047,2.301c1.366-4.369,2.536-8.825,3.572-13.352
	c-0.051-0.075-0.139-0.164-0.178-0.24c-0.885-0.151-1.346-0.454-1.592-0.853C372.915,216.56,369.69,214.928,366.442,213.222z
	 M160.105,335.537C159.043,335.814,160.785,335.348,160.105,335.537L160.105,335.537z M161.565,337.749
	C160.507,338.027,162.245,337.56,161.565,337.749L161.565,337.749z M162.868,342.61C160.232,338.78,168.074,341.34,162.868,342.61
	C164.167,343.223,162.634,344.469,162.868,342.61z M165.245,338.502C165.731,343.376,163.231,334.026,165.245,338.502
	L165.245,338.502z M164.761,346.447c0.695-0.759,0.158-1.201-0.436-1.624c0.866-1.107,2.373,0.215,3.679,0.751
	C167.372,347.54,166.079,347.055,164.761,346.447z M168.273,349.849C168.955,349.666,167.213,350.133,168.273,349.849
	L168.273,349.849z M170.488,348.396C169.429,348.673,171.171,348.211,170.488,348.396L170.488,348.396z M160.263,332.882
	c8.55,2.237,18.553,9.405,25.25,13.225C177.726,344.279,165.754,335.948,160.263,332.882z M185.672,343.463
	C186.351,343.286,184.613,343.742,185.672,343.463L185.672,343.463z M186.538,346.699
	C185.476,346.984,187.217,346.518,186.538,346.699L186.538,346.699z M187.245,352.592
	C187.924,352.409,186.184,352.883,187.245,352.592L187.245,352.592z M189.025,349.506
	C189.704,349.33,187.963,349.798,189.025,349.506L189.025,349.506z M201.335,330.588
	C202.016,330.403,200.277,330.872,201.335,330.588L201.335,330.588z M201.171,333.236
	C195.602,328.855,204.954,336.208,201.171,333.236L201.171,333.236z M199.985,335.29
	C203.359,338.824,195.242,334.133,199.985,335.29L199.985,335.29z M193.181,342.319
	C193.864,342.137,192.119,342.604,193.181,342.319L193.181,342.319z M192.269,348.641
	C195.636,352.181,187.521,347.484,192.269,348.641L192.269,348.641z M194.047,345.563c0.439,0.342,0.664,0.518,0.793,0.619
	C194.038,345.55,189.891,342.287,194.047,345.563z M197.015,340.424C200.798,343.4,191.446,336.05,197.015,340.424L197.015,340.424z
	 M198.207,338.368C201.986,341.34,192.632,333.987,198.207,338.368L198.207,338.368z M201.24,349.715
	c-0.688-0.398-1.371-0.79-2.053-1.188c0.391-0.676,0.79-1.37,1.185-2.048c0.687,0.394,1.372,0.784,2.054,1.183
	C202.033,348.35,201.635,349.032,201.24,349.715z M203.186,343.988c-0.986-0.612-0.074-1.719,0.158-2.648
	C204.326,341.947,203.412,343.053,203.186,343.988z M205.826,344.146C204.769,344.431,206.509,343.964,205.826,344.146
	L205.826,344.146z M206.311,336.201c1.027,0.595,2.054,1.194,3.081,1.788C209.168,341.859,203.067,338.331,206.311,336.201z
	 M244.288,325.474C244.651,324.089,246.162,325.359,244.288,325.474L244.288,325.474z M238.627,327.244
	c-0.217,0.618-1.353,0.948-1.117-0.393C237.882,326.978,238.255,327.111,238.627,327.244z M231.241,340.985
	c-0.657-0.302-1.265-0.632-0.721-1.504C231.182,339.784,231.781,340.113,231.241,340.985z M233.805,344.413
	c0.771-4.237,4.517-2.226,7.901-0.975c-0.645,1.239-2.373,0.214-3.754-0.07c-0.643,1.234-0.456,2.08,0.324,2.637
	C236.354,349.09,236.267,344.083,233.805,344.413z M244.196,350.606c-1.536-0.632-4.367-1.259-2.633,0.328
	c-2.541,2.889-4.829-1.896-2.165-4.538c1.796,0.512,3.822,1.53,4.146-1.048c-1.394-0.367-0.11-1.871,0,0
	C244.784,346.612,244.781,348.476,244.196,350.606z M242.496,341.194c0.266-0.739,0.524-1.485,0.79-2.231
	C249.141,339.772,243.245,345.65,242.496,341.194z M245.341,329.621C245.645,330.258,244.867,328.635,245.341,329.621
	L245.341,329.621z M250.862,335.348c0.13-0.367,0.263-0.733,0.395-1.112c-0.783-0.557-2.196-0.81-1.839-1.91
	c-1.245-0.96-1.78-2.25-1.053-4.152c-1.446-0.437-2.051,0.892-3.748-0.07c0.575-1.63,5.669-4.784,3.748,0.07
	c6.511,0.916,12.962,8.262,22.696,10.563C264.415,344.35,259.746,334.804,250.862,335.348z M281.081,324.664
	C281.378,325.296,280.606,323.666,281.081,324.664L281.081,324.664z M281.943,318.673C282.24,319.305,281.47,317.68,281.943,318.673
	L281.943,318.673z M284.109,323.217c0.644-1.252,2.37-0.222,3.751,0.07C287.212,324.525,285.486,323.501,284.109,323.217z
	 M308.268,315.41C308.571,316.042,307.791,314.418,308.268,315.41L308.268,315.41z M311.369,310.215
	C311.669,310.847,310.896,309.222,311.369,310.215L311.369,310.215z M332.59,293.843c0.363,0.164,0.727,0.321,1.09,0.486
	C333.415,294.93,332.255,295.157,332.59,293.843z M335.291,280.884C339.205,278.223,338.417,286.421,335.291,280.884
	L335.291,280.884z M352.817,260.707c0.418-1.081,1.675-0.38,2.629-0.329C355.032,261.453,353.772,260.764,352.817,260.707z
	 M364.6,252.3C364.133,251.301,364.91,252.932,364.6,252.3L364.6,252.3z M97.121,48.336C97.2,46.465,95.775,47.83,97.121,48.336
	L97.121,48.336z M249.418,332.325c0.773,0.557,2.193,0.81,1.839,1.91C255.756,333.197,251.586,329.164,249.418,332.325z
	 M317.89,46.547c-0.052-0.648,0.063-1.368,0.012-2.017c-0.641-0.521-1.305-1.021-1.953-1.536c0.013,0.734,0.133,1.416,0.26,2.096
	C316.773,45.567,317.329,46.061,317.89,46.547z M346.554,79.278c1.88,0.875,3.545,2.022,3.975,2.823
	c0.896,0.079,1.382,0.354,1.662,0.727c0.253,0.11,0.51,0.218,0.762,0.329c-3.545-5.319-7.389-10.433-11.494-15.335
	c-0.054-0.066-0.117-0.126-0.165-0.192c-2.354-2.804-4.807-5.521-7.336-8.177c-0.116,0.329-0.233,0.654-0.344,0.974
	c1.394,0.373,0.11,1.874,0,0c-0.755-0.537-2.07-0.815-1.84-1.817c-0.119-0.031-0.211-0.114-0.269-0.272
	c-0.563-0.373-0.249-0.961,0.044-0.581c0.345,0.123,0.693,0.243,1.037,0.366c-0.089,0.253-0.331,0.42-0.568,0.483
	c0.565,0.199,1.131,0.401,1.702,0.598c-1.981-2.074-4.01-4.096-6.093-6.072c-0.082,0.762-0.158,1.521-0.297,2.308
	C334.481,62.764,340.921,70.748,346.554,79.278z M348.667,78.34C348.969,78.981,348.191,77.354,348.667,78.34L348.667,78.34z
	 M32.695,193.385c0.032,0.442,0.072,0.885,0.107,1.328C33.059,193.917,33.109,193.304,32.695,193.385z M39.566,144.055
	c-0.964-0.05-1.637,0.48-1.912,1.839c-0.73-0.436-1.28-0.866-1.77-1.295c-0.114,0.556-0.253,1.1-0.364,1.656
	C37.126,147.108,38.7,147.569,39.566,144.055z M312.498,40.276c-2.77-2.083-5.617-4.077-8.516-6.002
	c-0.809,0.411-1.75,0.183-2.073-1.328c-13.224-8.508-27.71-15.354-43.249-20.104c-0.329,0.237-0.588,0.528-0.737,0.888
	c18.572,5.433,35.588,14.033,50.504,25.143C309.707,39.066,311.173,39.606,312.498,40.276z M79.396,290.245
	c-0.199,0.348-0.398,0.69-0.594,1.03C81.362,296.39,85.107,289.91,79.396,290.245z M53.075,97.303c-0.006,0.038,0,0.041-0.003,0.079
	c0.032-0.06,0.07-0.117,0.102-0.177C53.132,97.252,53.119,97.252,53.075,97.303z M52.398,139.794
	C52.765,138.404,54.273,139.687,52.398,139.794c-0.534,1.473-2.323,0.329-3.028,1.441c0.705,2.737,3.028,0.366,5.335-0.696
	c0.787-4.595,1.738-9.122,2.892-13.553c-3.322,1.334-2.181-4.981,0.174-0.635c0.203-0.762,0.423-1.517,0.635-2.273
	c-0.813-0.104-1.264-1.422-2.14-1.956c1.254-1.186,1.776-0.165,2.484,0.721c0.348-1.204,0.695-2.409,1.068-3.6
	c-0.591,0.17-1.409-0.266-2.099-0.363c0.436-0.914,1.41-0.427,2.288-0.203c5.56-17.427,13.926-33.423,24.549-47.517
	c-2.298-1.962-3.638-2.206,0.74-3.489c0.831,0.546,0.464,1.514,0.031,2.509c12.589-16.432,28.215-30.238,45.924-40.699
	c0.834-2.212,3.123-4.94-0.123-5.702c0.796-2.769,4.598,2.917,4.744-1.685c0.81,1.141,1.615,2.285,2.652,3.347
	c28.891-15.114,62.625-21.622,97.353-16.552c7.241,1.056,14.277,2.626,21.122,4.583c-0.088-0.338-0.028-0.692,0.187-1.04
	c-7.958-2.358-16.17-4.207-24.621-5.439c-31.871-4.652-62.968-0.363-90.813,10.908c-0.815,1.459-1.574,2.977-2.159,4.649
	c-0.806-1.182-1.103-2.247-1.214-3.277c-8.619,3.698-16.887,8.104-24.772,13.1c-1.799,2.548-3.771,5.137-6.034,7.794
	c-3.208-2.279,3.208-3.559,2.092-5.271c-1.792,1.204-3.54,2.465-5.285,3.732c0.24-0.085,0.563-0.199,0,0.003
	c-1.207,0.875-2.402,1.77-3.587,2.677c0.812,0.632,0.676,2.354-1.713,1.343c-0.86,0.674-1.735,1.331-2.583,2.02
	c1.773,1.258,3.938,1.916,0.623,3.663c-0.9,1.236-2.819,0.471-4.042-0.746c-16.072,13.822-29.65,30.598-39.906,49.615
	c2.905-3.306-0.68,4.707-0.102,0.177c-6.451,11.992-11.596,24.858-15.148,38.48C42.828,137.342,48.167,139.725,52.398,139.794z
	 M117.007,34.145C116.344,34.378,118.041,33.778,117.007,34.145L117.007,34.145z M104.975,42.871
	c1.172,0.774-0.028,2.383-0.458,3.727C103.344,45.827,104.539,44.211,104.975,42.871z M95.082,52.622
	C93.177,47.609,99.731,52.622,95.082,52.622C94.577,53.968,93.214,52.54,95.082,52.622z M91.463,57.467
	c1.027,0.528,0.209,1.71,0.054,2.655C90.487,59.597,91.309,58.412,91.463,57.467z M88.815,57.524
	C88.148,57.758,89.845,57.151,88.815,57.524L88.815,57.524z M87.845,62.318c1.175,0.768-0.025,2.38-0.456,3.72
	C86.214,65.268,87.415,63.655,87.845,62.318z M84.068,59.205C85.101,58.842,83.407,59.442,84.068,59.205L84.068,59.205z
	 M67.307,97.215C68.344,96.851,66.646,97.449,67.307,97.215L67.307,97.215z M48.995,138.378c0.502-1.043,1.7-0.253,2.648-0.114
	C51.146,139.295,49.949,138.511,48.995,138.378z M49.14,129.336C49.532,130.36,48.887,128.678,49.14,129.336L49.14,129.336z
	 M50.452,135.123c0.499-1.043,1.697-0.247,2.651-0.114C52.601,136.052,51.4,135.256,50.452,135.123z M51.902,131.874
	c0.499-1.043,1.7-0.24,2.655-0.107C54.048,132.803,52.85,132.006,51.902,131.874z M56.008,128.514
	c-0.502,1.034-1.7,0.25-2.651,0.117C53.858,127.588,55.06,128.372,56.008,128.514z M53.802,125.186
	c-2.244-0.784-4.479-1.577-6.713-2.374C48.66,121.656,56.953,118.795,53.802,125.186z M45.369,134.788
	c-0.977,1.208-2.247,1.795-4.153,1.043C42.196,134.624,43.46,134.042,45.369,134.788z M41.289,132.083
	C41.592,132.728,40.812,131.097,41.289,132.083L41.289,132.083z M79.396,290.245c0.449-1.276-0.214-2.257-0.869-3.242
	c1.296-1.656,3.123-1.315,5.294,0.329c1.466-2.137-3.37-2.58-4.539-4.009c2.601,0.784,5.129-3.494,1.943-5.727
	c1.309-2.668,3.433-2.301,5.456-2.326c2.117-2.592-6.062-2.427-3.948-5.02c0.689-4.993,4.64,2.206,5.885-0.707
	c-3.777-4.198-6.28-8.736-10.379-12.857c0.228-0.342,0.344-0.645,0.546-0.986c-10.455-15.872-18.107-33.623-22.412-52.479
	c-0.278,0.405-0.964,0.462-2.427-0.303c-1.583,6.384-9.552,12.035-12.848,21.486c-4.896-7.188,5.076-10.854,5.452-19.742
	c0.354,0.165,0.711,0.342,1.071,0.507c0.566,4.583,5.01,0.853,2.089-1.632c1.081-1.138,2.421-1.529,4.235-0.619
	c0.591-1.391-0.673-2.137,0.455-3.717c0.439,0.202,0.951,0.79,1.372,1.461c-3.796-17.997-4.542-36.955-1.735-56.215
	c-0.366-0.063-0.698-0.114-0.989-0.158c-1.833-0.284-2.544-0.36-6.707-1.599c-1.103,1.213-3.148,5.329-2.371,6.707
	c-3.827,1.157-5.556,0.208-8.831-0.923c-0.398,2.15-0.796,4.299-1.116,6.479c-1.767,12.111-2.241,24.115-1.542,35.873
	c1.217-0.455,3.075-0.183,4.264,1.296c-0.695,1.732-1.909,3.641,0.616,4.235c0.509-1.353,1.871,0.076,0,0
	c-1.179,0.93-2.699,0.898-4.394,0.392c0.086,0.911,0.146,1.82,0.247,2.73c0.383-0.29,0.86-0.467,1.549-0.422
	c0.771,1.08,0.139,3.204-0.917,5.195c0.952,6.909,2.27,13.711,4.017,20.373c1.675,2.39,3.414,4.747,8.136,6.049
	c0.111,1.739-3.543-0.802-6.871-1.649c7.484,25.74,20.733,49.313,38.528,68.927c2.196-1.075-3.682-3.59,1.144-6.676
	C78.23,290.947,78.119,289.771,79.396,290.245z M52.819,199.758C53.855,199.391,52.158,199.998,52.819,199.758L52.819,199.758z
	 M52.661,146.179c-0.42,1.075-1.678,0.386-2.632,0.329C50.439,145.426,51.7,146.128,52.661,146.179z M51.798,152.171
	C52.095,152.804,51.321,151.173,51.798,152.171L51.798,152.171z M52.126,154.801c-0.072,3.761-3.201,1.1-5.272,0.651
	C48.125,154.219,49.984,154.219,52.126,154.801z M45.018,153.549C45.319,154.181,44.542,152.551,45.018,153.549L45.018,153.549z
	 M44.946,157.298C44.475,156.305,45.252,157.93,44.946,157.298L44.946,157.298z M45.669,158.809
	c2.696,0.259,0.834,2.699,2.563,3.426c-0.648,1.239-2.377,0.215-3.752-0.063C44.876,161.046,45.271,159.927,45.669,158.809z
	 M44.544,184.005c-0.367,0.625-0.756,1.188-1.578,0.555C43.34,183.942,43.729,183.373,44.544,184.005z M42.708,156.508
	C42.24,155.509,43.011,157.14,42.708,156.508L42.708,156.508z M43.741,196.755c-1.413,5.733-6.643-0.733-2.143-1.018
	C42.313,196.079,43.024,196.414,43.741,196.755z M35.464,162.753C34.993,161.754,35.767,163.385,35.464,162.753L35.464,162.753z
	 M37.044,158.278C37.411,156.887,38.918,158.157,37.044,158.278C33.767,161.564,34.844,153.385,37.044,158.278z M39.911,190.997
	c-1.164-0.771-2.02-0.67-2.652,0.05c-2.873-2.231,2.115-1.808,2.039-4.285c4.134,1.2,1.751,4.715,0.159,7.958
	C38.28,193.949,39.478,192.336,39.911,190.997z M54.064,235.827C53.4,236.054,55.101,235.453,54.064,235.827L54.064,235.827z
	 M54.734,242.703c-1.175-0.764,0.022-2.376,0.455-3.716C56.365,239.759,55.164,241.364,54.734,242.703z M59.93,237.3
	C59.267,237.533,60.967,236.926,59.93,237.3L59.93,237.3z M60.455,263.822C59.794,264.057,61.492,263.45,60.455,263.822
	L60.455,263.822z M62.244,254.221c0.632-0.714,1.03-2.098,2.089-1.631C63.698,253.312,63.299,254.695,62.244,254.221z
	 M65.303,267.445C64.643,267.673,66.34,267.072,65.303,267.445L65.303,267.445z M353.57,90.903c0.084-0.329,0.229-0.708,0.568-1.236
	c-0.516-0.265-1.139-0.477-1.691-0.72C352.813,89.601,353.209,90.242,353.57,90.903z M351.082,86.57
	c0.192,0.329,0.379,0.66,0.568,0.993c1.227,0.512,2.741,0.885,2.488,2.104c3.747,0.423,1.232,2.342-0.042,2.235
	c0.92,1.716,1.806,3.448,2.663,5.199c1.063-0.641,3.501-1.596,0.994,0.143c-0.408,0.117-0.6,0.148-0.821,0.193
	c0.601,1.232,1.157,2.487,1.729,3.736c0.707-1.896,1.383-3.667,2.013-5.297c-1.55-2.807-3.186-5.563-4.885-8.281
	c-0.979-0.304-1.962-0.601-3.096-0.958c-0.599-1.065,0.242-2.816-0.504-3.809c-0.553-0.243-1.108-0.477-1.662-0.727
	C350.52,83.678,350.939,85.056,351.082,86.57z M357.821,93.495C357.346,92.499,358.123,94.124,357.821,93.495L357.821,93.495z"/>
</svg>
