<svg version="1" xmlns="http://www.w3.org/2000/svg" width="933.333" height="933.333" viewBox="0 0 700.000000 700.000000"><path d="M333.5 10.4c-28.3 3.3-50.8 8.4-75.4 17.2-9.2 3.3-9.9 3.7-11.8 7.7l-2.1 4.2-1.1-2.8c-.6-1.5-1.3-2.7-1.6-2.7-1.2 0-23.6 11.6-33 17.1-8.4 4.9-10.8 6.9-14.9 12.4-2.8 3.6-5.3 6.5-5.8 6.5-1.8 0-.6-3.2 2-5.5 5.1-4.4 1.7-3.3-5.5 1.9-4.2 2.9-7.3 5.8-7.3 6.8 0 1.2-.8 1.8-2.2 1.8-1.2 0-2.9.7-3.9 1.6-1.7 1.6-1.7 1.7.4 3.5 1.8 1.6 2 2 .7 2.8-.8.5-1.8.7-2.2.5-.5-.3-.7 0-.6.8.3 1.4-1.3 1.5-5 .4-2.1-.7-4.1 1-16.3 13-14.7 14.6-24 25.4-34.4 40-8.8 12.2-18.7 28.9-18.9 31.6-.1 1.3-.7 2.2-1.3 2.1-2.8-.6-23.2 49.2-25.8 63.1l-.7 3.4 9.4 3.1c5.1 1.7 10.5 3.1 12.1 3.1 1.5 0 2.7.4 2.7 1 0 .5-.9 1-2 1s-2 .7-2 1.5c0 1.9 2.3 1.9 5.9.1 2.4-1.3 3-2.5 4.9-11.9 2.6-12.3 2.7-13.3.7-14.1-2.6-1-1.7-2.9 1-2.2 2.9.8 3.3-.8.8-3.6-1.9-2.1-1-3.6 1.1-1.9 1.3 1.1 1.6.8 2.2-1.3.4-1.6.1-3.3-.7-4.3-1.2-1.5-1.2-1.6.2-1.1s2.2-.9 4.4-7c7.9-22.2 20.4-46.7 33.9-66.2 6-8.7 6.4-9.5 5-11.1-.9-1-1.3-2.3-.9-2.8.8-1.4 4.2-1.4 4.7 0 .2.5 4.6-4 9.8-10.2 15.8-18.7 40.2-39.8 61.3-52.9 7.4-4.7 8.9-6.1 9.9-9.2.9-2.9.8-4.1-.2-5.3-1.8-2.2-.7-2.8 2.4-1.3 2.3 1 2.9.9 3.6-.2.7-1.2 1.4-1 3.5 1l2.5 2.4 10.8-5.2C278 27.7 305 19.6 333 15.4c14.7-2.1 49.7-3 64.5-1.5 13.7 1.4 31.5 4.4 42.7 7.2 8.4 2.1 10.7 2.4 9.3 1.1-2.6-2.3-30-8.2-50-10.8-16.1-2.1-51.4-2.6-66-1zM184.3 78c-.6 2.2-2.3 3.8-2.3 2.1 0-1.7 1.2-4.1 2-4.1.5 0 .6.9.3 2zm-15.5 12.2c.2.8-.6 1.8-1.6 2-1.5.4-1.8.1-1.4-1.9.5-2.6 2.5-2.6 3-.1zm-7.8 12.3c0 .8-.4 1.5-1 1.5-.5 0-.7-.7-.4-1.5.4-.8.8-1.5 1-1.5.2 0 .4.7.4 1.5zm-6.7 9.5c-.6 2.2-2.3 3.8-2.3 2.1 0-1.7 1.2-4.1 2-4.1.5 0 .6.9.3 2zM94.8 214.3c.8 4.1-.4 4.7-5.5 3-6.5-2.1-7.2-3-3.2-4.2 4.9-1.4 8.3-.9 8.7 1.2zm1.7 10.7c.3.5.2 1-.4 1-.5 0-1.3-.5-1.6-1-.3-.6-.2-1 .4-1 .5 0 1.3.4 1.6 1zm-2.2 5.7c-.7.2-1.9.2-2.5 0-.7-.3-.2-.5 1.2-.5s1.9.2 1.3.5zM78.5 236c.7 1.1-4.2 2.6-5.3 1.6-.7-.8 1.7-2.6 3.5-2.6.6 0 1.5.4 1.8 1zm13.8.7c-.7.2-1.9.2-2.5 0-.7-.3-.2-.5 1.2-.5s1.9.2 1.3.5zm-2.8 5.3c.3.5-.1 1-.9 1s-1.8-.5-2.1-1c-.3-.6.1-1 .9-1s1.8.4 2.1 1z"/><path d="M342.2 51.7c-11.7 31.1-12.9 35-11.6 36.4 1.3 1.5 1.2 2.1-.9 5.2-1.3 1.9-3 5-3.7 6.8-1.4 3.2-1.3 3.3 2.8 6.8 5.7 4.9 5.6 7.1-.3 7.1-3.1 0-5.1-.6-6.4-1.9-1.9-1.9-2.3-.9-22.6 53.3-11.4 30.3-22.2 58.7-23.9 63.1l-3.1 8-39.5 6.6c-39.1 6.5-39.5 6.6-39.6 9-.3 5.9-.5 6.7-1.8 7.2-.8.3-2.1 0-3-.6-1.6-1.1-1.6-1.5-.1-5.1 1.5-3.6 1.5-3.7-.2-3.3-1 .3-8 1.6-15.5 2.8l-13.7 2.2.6 2.8c.7 3.5.4 3.5-4.9.8-3.9-2-4.7-2-11.7-.9-10.8 1.7-12.1 2-12.1 3.6 0 1.7-2.2 1.8-3.7.3-.8-.8-5.3-.4-16.6 1.5-8.6 1.4-16 2.6-16.6 2.6-.6 0-1-2.5-.8-6.7l.2-6.6-6-1.4c-5.8-1.3-6.1-1.3-7.8.8-.9 1.2-2 3.3-2.3 4.8-1.2 5.4-1.1 5.4-6.7 4.8-2.8-.3-6.2-.8-7.3-1.2-2-.6-2.2-.2-2.8 4.9-.4 3.1-1.1 5.8-1.5 6.1-.5.2-10.8 2.1-23 4.1-12.1 2.1-22 3.9-21.8 4.1.2.2 9.8 4.6 21.3 9.7l20.9 9.5-.3 7.3c-.2 4 0 11.9.3 17.5.6 9.1.9 10.3 2.5 10.3 4.1 0 5 1 4.4 5.1-.5 2.7-.3 3.9.5 3.9.7 0 .9.5.5 1.1-.3.6-1.9.9-3.5.7-2.5-.4-2.9-.1-2.9 1.8 0 1.7.4 2.2 1.5 1.8 1.7-.7 2.1 3 .6 6.8-1 2.6.5 12.9 4.1 28.7 1.7 7.7 2.8 10.2 5.6 13.2 1.8 2.1 4.9 4.4 6.8 5.1 1.9.6 3.4 1.6 3.4 2 0 .4-2.3-.1-5.2-1.2-2.8-1.1-5.4-1.7-5.6-1.5-.9.8 9 27.9 14.7 40.5 12.7 27.8 25.9 48.3 49.4 76.5 2.7 3.2 4.6 3 2.8-.3-1.5-2.8-1.4-5.7.3-7.1 1-.9 1.6-.8 2.6.4 1.6 2 3.9 1.9 4.7-.1.8-2.1-1.6-3.6-4.7-2.9-1.7.4-2.1.3-1.1-.3.9-.7 1.1-1.9.7-3.9-.6-2.5-.3-3.1 1.3-3.6 1.1-.2 3.1.1 4.5.9 2.2 1.1 2.6 1.1 2.6 0 0-.8-1.5-2.1-3.4-3l-3.5-1.6 2.5-2.5c2.8-2.8 3-4.3 1-7.1-1.3-1.7-1.2-2.1.1-3.7.9-1 3-1.7 5-1.7 4.6 0 4.3-2.4-.6-5-3.1-1.6-3.8-2.4-3.4-4.1.8-2.9 2.7-3.3 5.8-1.3 1.6 1 3 1.3 3.5.8.6-.6-2.4-5.2-7.8-12-4.9-6.1-8.9-11.7-8.9-12.5 0-.8-2.6-5.7-5.8-10.9-11.9-19.3-22.5-44-29.3-68.3-2.3-7.9-4.1-12.7-4.9-12.7-.8 0-1.8-1.2-2.3-2.6-1.1-2.7-.5-4.8 1.1-3.9 1.2.8 1.2 0-.6-10.2-2.4-14.1-3.3-24.4-2.1-23.9 2.5 1 127.1 56.9 127.5 57.2.2.2-30.4 82.4-44.1 118.4-1 2.4-1.1 2.3-8.8-5.8-7.7-8.1-9-8.7-9-3.6 0 .8-2.7 8.5-6.1 17.2-6.8 17.5-7.6 19.9-8.8 25.9-.8 4.1-.7 4.3 4.4 9.3 2.8 2.8 5.4 4.8 5.7 4.4.4-.3 3.3 1.3 6.6 3.5s9 5.6 12.6 7.4l6.5 3.3-3.8 4.2c-3.4 3.7-4.4 4.2-8.1 4.2-3.7 0-4.1.2-2.9 1.6.7.8 2.6 2.2 4.2 3 2.8 1.5 3.1 1.4 6.6-1.4l3.6-2.9 13.7 9.1c7.5 5 18.7 11.8 24.9 15l11.3 5.9 4.2-4.9c2.4-2.7 5.6-7 7.1-9.6 1.5-2.6 3.1-4.8 3.5-4.8 1.3 0 1.9 5.7.8 8.6-.6 1.6-2.9 5.3-5.2 8.2-2.2 3-3.8 5.5-3.6 5.6.1.1 5 2.2 10.6 4.5 9.5 3.9 10.5 4.1 12.1 2.7 2.4-2.1 11.1-2.2 11.1-.1 0 .8 1.2 1.7 2.8 2.1 1.5.3 3.3.7 4 1 1.5.4 1.6 3.4 0 3.4-2.3 0 .8 2.1 3.3 2.2 1.3.1 2.9.5 3.4.9 2.3 1.6 26.6 6.4 43 8.4 13.8 1.7 20.7 1.9 18.6.6-1.2-.8-1.3-1.4-.3-3.5.6-1.4 1.6-2.6 2.1-2.6 1.5 0 3.6 4.2 3.2 6.4-.3 1.9.4 1.9 18.7 1.3 16.7-.6 48.8-4 50.1-5.3.3-.2-.1-1-.7-1.6-1.6-1.6-1.5-6.5.1-7.5.6-.4 2.2-.6 3.5-.4 1.3.1 2.9-.3 3.7-.9 1.1-1 1.5-.7 2.1 1.4.9 3.7-.1 5.6-3 5.6-1.3 0-2.6.7-3 1.5-.3.8-.2 1.5.2 1.5.7 0 7.6-1.5 12.2-2.6l2.5-.6-2.2-.9c-1.3-.4-2.3-1.5-2.3-2.4 0-1.9 4.6-2 9.2-.1 3.2 1.4 4.1 1.2 18.6-3.6 8.4-2.8 15.2-5.5 15.2-6 0-.6 1.8-3 3.9-5.4 2.2-2.6 4.2-6 4.6-8.2.4-2 1-3.1 1.3-2.3.2.7-.1 3.8-.8 6.7-.7 3-1.1 5.7-.8 6 .6.5 24-10.8 31.4-15.2 2.5-1.4 3.6-3.2 5.4-8.8l2.2-7 1.5 2.7c1.6 3.1 2.5 3.3 4.3 1.2.8-.9 2.6-1.5 4.5-1.3 2.4.1 4.6-.8 8.6-3.7 30.7-22.2 61.9-54.7 72-74.8 2.3-4.5 5.2-10.9 6.5-14.2 1.4-3.8 2.8-5.9 3.6-5.6.7.2 1.9.4 2.6.5 3.7.3 28.9-55.6 26-57.6-5.3-3.5-12.7-7.7-14.5-8.3-4.4-1.3-1.9-3.5 4-3.5 1.6 0 5.4 1.4 8.4 3 3.8 2.2 5.5 2.7 5.8 1.8 2.4-6.6 5.5-21.4 5.5-26.1 0-3.1.4-5.7.8-5.7 1 0 3.7-11.6 5.2-22 .6-4.1 1.3-17.8 1.7-30.3.6-21 .5-22.9-1.2-24.1-1.5-1-1.5-1.6-.5-3.3 1.1-1.6 1.1-4.2.1-12.9-2.6-22.6-7.9-46.2-15.1-66.5-2.2-6.3-4-11.9-4-12.6 0-.7 9.5-8.5 21-17.4 11.6-8.9 21.3-16.5 21.5-16.9.4-.6-15.3 1.6-18.5 2.6-1.2.4-.9.9 1 2.4 2.3 1.7 2.3 1.9.7 2.6-1.2.4-2.7-.2-4.6-2-1.5-1.4-3.1-2.3-3.5-1.9-.7.7-1.2.8-7.5 1.1-2.7.2-3.2.5-2.3 1.4 1.5 1.5 1.6 4.5.2 5.3-.6.4-1.6-.8-2.2-2.5-1-3-1.3-3.2-4.7-2.6-2 .3-5.9.9-8.6 1.2-4.8.6-5.1.5-6.3-2.1-.7-1.5-1.4-2.6-1.6-2.4-.2.2-2.2 5.8-4.5 12.4-2.2 6.6-5 14.2-6.1 17l-2.1 5 .6-4.3c.3-2.4 1.9-8.5 3.5-13.5s2.8-9.3 2.6-9.4c-.7-.8-119.8 19.7-121.1 20.7-.8.6-2.3.9-3.3.6-3.5-1.1-25.9 3-28.8 5.3-1.5 1.2-3.2 2.1-3.9 2.1-.7 0-1.8.7-2.5 1.5s-2.1 1.5-3.1 1.5c-1.6 0-1.9.8-1.9 5.1 0 4.1.3 5 1.5 4.5.8-.3 1.5-.1 1.5.4 0 .6-.6 1-1.3 1-.7 0-2 1.2-2.9 2.7l-1.7 2.8-.1-2.8c0-1.5-.4-2.7-.9-2.7-1.5 0-7.5 7.8-12.3 16-2.5 4.1-4.8 7.4-5.1 7.2-.4-.1-1.8-.2-3.2-.2-2.4 0-2-.9 7.4-14.8 5.6-8.1 11.7-16.9 13.7-19.5 3.5-4.5 3.5-4.8 1.3-4.3-9.6 2.2-26.5 4.4-27.3 3.6-1.2-1.2-3.5 1.8-3.6 4.7 0 1.2.6 2.3 1.3 2.6.6.2.9.8.5 1.2-.5.5-2 .3-3.5-.4-2.3-1.1-2.9-1-4 .5-.7 1-1.3 1.2-1.3.6 0-2-6.8-8.9-10-10.2-1.7-.7-3-1.6-3-2.1 0-1.3.6-1.2 6.1 1.7 6.6 3.3 11.7 3 13.8-.8 1.5-2.6.9-4.2-15.4-45l-16.9-42.3-3.8-.1c-2.1-.1-3.8 0-3.8.2s1.8 1.5 4 2.9 4 3 4 3.6c0 1.9-5.8.1-10.5-3.2l-4.4-3.2 4-4.5c2.2-2.5 4.2-5.6 4.6-7 .4-1.8-4.1-14.3-17.2-46.8-9.7-24.4-17.8-44.4-18-44.4-.1 0-6.1 15.6-13.3 34.7zm2.3 101.3c.7 1.2-4.4 6.2-5.6 5.4-1.1-.6 0-3.6 1.9-5.2 1.9-1.5 2.9-1.5 3.7-.2zm319.9 22.2c-.7 1.1-3.2 1-3.9-.2-.3-.6.4-.9 1.9-.8 1.3.1 2.2.6 2 1zm-4.9 8.8c.8 2.6-.4 4.8-1.6 2.9-1.2-1.9-1.1-4.9 0-4.9.5 0 1.2.9 1.6 2zm-288.4 4.3c-1.8 1.8-2.5-.1-1.1-3l1.4-2.8.4 2.4c.2 1.3-.1 2.8-.7 3.4zm-62-.4l4.4 3.9-4 4c-2.3 2.2-5.1 6.3-6.5 9.1-2.4 5.2-3.7 6-5.8 3.9-1.7-1.7-1.5-4.3.8-8.8 1.1-2.1 1.9-4.9 1.7-6.2-.2-2 .3-2.3 3.1-2.3 1.7 0 3.2-.2 3.2-.5s-1.7-1.9-3.7-3.7l-3.8-3.2 3.1-.1c2.3 0 4.4 1.1 7.5 3.9zm86.9-2.1c0 .5-.7 1.7-1.5 2.8-1.5 1.9-2 .8-.9-2 .6-1.7 2.4-2.2 2.4-.8zm-30.3 13.4c-.3.7-.5.2-.5-1.2s.2-1.9.5-1.3c.2.7.2 1.9 0 2.5zm146.8 4.9c0 .7-.8 1.5-1.7 1.7-1.8.3-2.5-1.8-1.1-3.2 1-1 2.8-.1 2.8 1.5zm74.6 6.2c-.8.8-1.1.7-1.1-.4 0-2 1.3-3.4 1.8-1.9.3.7-.1 1.7-.7 2.3zm55.7 8.9c1.7 6.2 3.6 13.9 4.2 17 1 4.8 1.5 5.9 3.6 6.4 2.9.7 2.8.4.8 5.3-1.3 3.3-1.4 5.4-.5 12.8 2.7 23.5 2.2 52.7-1.4 74.7-.7 4.4-1.2 8.2-1 8.4.1.1 2.3-4.5 5-10.3 2.6-5.8 5-10.3 5.3-10 .8.8-3.7 13.2-8.5 23.5-4.1 8.6-7.3 17.6-7.3 20.6 0 .7 3.4 2.7 7.5 4.5 7.2 3.1 7.5 3.4 7.5 6.6v3.3l-8.2-4.4-8.2-4.5-3.8 10.7c-2.1 5.9-3.8 11.4-3.8 12.4 0 .9-.4 1.8-.8 2-.7.3-7.2 14.1-7.2 15.3 0 .3 1.3.5 2.9.5 1.7 0 3.2.4 3.6.9.3.5-.7 3.6-2.1 6.8-2 4.3-2.8 5.3-3.1 3.8-1.3-5.5-5.5-3.4-10.4 5.2-1.8 3.2-5.2 8.8-7.6 12.6-4.4 6.9-4.8 7.8-3.5 7.6 2.1-.4 4.2.2 4.2 1.2 0 .7-1.2.9-3.2.5-3.2-.5-3.5-.2-9.3 7.7-8.8 12.1-25 30.1-35.4 39.5-5 4.5-9.5 8.2-9.9 8.2-.4 0-11.5-27-24.6-60-17.7-44.3-24.4-60.1-25.8-60.5-2-.7-2.4-2.1-.7-2.7 1.5-.5-16.7-46.8-19.4-49.1-2.6-2.3-3.7-.4-1.3 2.2 2.1 2.3 2 3.3-.8 5.3-2.3 1.7-2.5 1.6-6.2-1.1-2.2-1.6-5.2-4.3-6.8-6-1.7-1.7-3.6-3.1-4.3-3.1-1.3 0-1.8-3.1-.7-4.3.3-.3 2.4.1 4.6.9 5.8 2 7.7 1.8 8.4-1 .5-2.1 1-2.3 4.9-1.8 4 .4 4.9 0 10.7-4.3 3.5-2.7 6.7-5.2 7.2-5.6.5-.4-.3-2.2-1.8-3.9-1.4-1.7-2.6-3.6-2.6-4.1 0-1.6 4.4-1 7.7 1l3.1 2 13.1-10c7.2-5.5 13.1-10.6 13.1-11.3 0-.8.7-1.9 1.5-2.6 1.3-1.1 1.4-1 .8.6-.5 1.5-.4 1.7.8.8.8-.6 18-13.8 38.2-29.4 20.3-15.6 37.1-28.9 37.4-29.6.3-.8 1.1-1.4 1.8-1.4s7.3-4.7 14.6-10.4c7.4-5.8 13.7-10.5 14-10.5.4-.1 2 5 3.7 11.1zM485 210c0 .5-1.4 1-3.1 1-1.7 0-2.8-.4-2.4-1 .3-.6 1.7-1 3.1-1 1.3 0 2.4.4 2.4 1zm-9.6.6c.9.3 1.3 1 1 1.5-.7 1.1-6.4 1.2-6.4.1 0-2.1 2.4-2.8 5.4-1.6zm-57.8 15.2c-.2 1.8-3 6.7-6.1 10.9-3.1 4.3-5.9 9-6.2 10.5-.3 1.8-1.6 3.3-3.6 4.3-3 1.5-3 1.5-1.2-.5 2.1-2.4.8-4.7-2.1-3.6-1.2.5-1.5 1.4-1 3.6.6 3.1-.1 3.5-4.6 3.1-1.1-.2-1.8.5-1.8 1.6 0 1-.4 2.4-.9 3.2-.7 1.1-1.3.7-2.5-1.8-1.9-3.6-1.3-5.5 1.4-4.6 1.4.4 2.3-.2 3.4-2.2.8-1.6 5.1-7.1 9.6-12.3 4.5-5.2 9.6-11.9 11.3-14.9 2.9-5.1 3.1-5.3 4-3 .4 1.3.6 3.9.3 5.7zM468 219c0 .5-.4 1-1 1-.5 0-1-.5-1-1 0-.6.5-1 1-1 .6 0 1 .4 1 1zm149 .5c0 .8-.4 1.5-1 1.5-.5 0-.7-.7-.4-1.5.4-.8.8-1.5 1-1.5.2 0 .4.7.4 1.5zm-149.1 4.1c-1.4 1.8-2.4 1.1-1.5-1.1.3-.9 1.1-1.3 1.6-1 .8.5.7 1.1-.1 2.1zm125.9-1c1.2.4 2.2 1.1 2.2 1.7 0 1.8-4.2 5.7-6.2 5.7-2.1 0-2.3-1.8-.6-5.5 1.2-2.7 1.3-2.7 4.6-1.9zm9.8 3.4c2.4.9 2.5 1.3 1.3 2.4-2.3 2.2-5.9 3-5.9 1.2 0-1.6 1-4.6 1.5-4.6.2 0 1.6.5 3.1 1zm-135.5 9.5c6.3 3.3 26.9 15.5 26.9 16.1 0 .7-10.1-3.6-14.9-6.3-11.2-6.3-25.1-14.5-25.1-14.9 0-.6 7.6 2.4 13.1 5.1zm54.4-1.5c.3.5.2 1-.4 1-.5 0-1.3-.5-1.6-1-.3-.6-.2-1 .4-1 .5 0 1.3.4 1.6 1zm15.9 5.5c-.4.8-1.4 1.5-2.4 1.5-2.3 0-4.4-2.6-3.6-4.5.5-1.4.9-1.4 3.5 0 2 1 2.8 2 2.5 3zm-87.4 3.1c0 .8-.7 1.4-1.5 1.4-1.5 0-2.1-2.1-.9-3.3 1-.9 2.4.2 2.4 1.9zm-160 0c0 1 .7 1.4 2.3 1.2 2-.3 2.2.1 1.9 3.2-.5 4.5-.8 4.7-3.3 2.4-2.1-1.9-2.1-1.9-3.9.4-2.3 2.8-3 2.8-3-.2 0-3.8 1-5.6 3.2-5.6 1.7 0 1.8-.3.8-1.5s-1-1.5.4-1.5c.9 0 1.6.7 1.6 1.6zm155 2.4c-.6 1.1-1.5 2-2.1 2-.6 0-.6-.7.1-2 .6-1.1 1.5-2 2.1-2 .6 0 .6.7-.1 2zm14-.5c0 .8-.7 1.5-1.5 1.5s-1.5-.7-1.5-1.5.7-1.5 1.5-1.5 1.5.7 1.5 1.5zm68.2 2.7c-.7.7-1.2.8-1.2.2 0-1.4 1.2-2.6 1.9-1.9.2.3-.1 1.1-.7 1.7zm-86 1c.2.6 2 1.7 3.9 2.3 3.9 1.3 5 4 2 4.8-1.4.3-3.4-.5-5.8-2.4-5.7-4.6-9.1-3.8-12.4 2.9-3.1 6.5-4.5 8-6 6.5s1.4-8 5.3-12.1c2.7-2.7 3.9-3.2 7.9-3.2 2.8 0 4.9.5 5.1 1.2zm22.7 2.7c1.6 1 .6 3.1-1.4 3.1-.8 0-1.9-.9-2.5-2-.9-1.7-.8-2 .7-2 1 0 2.4.4 3.2.9zm60.4 6.2c-.7.7-1.9.9-2.8.5-1.3-.5-1.4-1-.4-2.7 1-2 1.2-2 2.7-.5 1.2 1.2 1.3 1.9.5 2.7zm-350.2-.4c-.8 1.5-1 1.5-1.1.2 0-1.7 1-3.2 1.8-2.5.2.3-.1 1.3-.7 2.3zm-84.6-.7c.3.5-.1 1-1 1s-1.3-.5-1-1c.3-.6.8-1 1-1 .2 0 .7.4 1 1zm90.2 3.2c-.3.8-.6.5-.6-.6-.1-1.1.2-1.7.5-1.3.3.3.4 1.2.1 1.9zm275.3-1.3c0 .5-1.2.8-2.6.8-1.8 0-2.2-.2-1.3-.8 1.8-1.1 3.9-1.1 3.9 0zm53.5.1c.3.5.2 1-.4 1-.5 0-1.3-.5-1.6-1-.3-.6-.2-1 .4-1 .5 0 1.3.4 1.6 1zm-66.4 4.9c-1.5 2.7-1.4 3.1.8 3.1 1.1 0 2.8-1.2 3.9-2.8 1.8-2.4 2.1-2.5 2.8-.9.4 1.1 0 2.5-1.1 3.7-1.1 1.2-1.6 2.9-1.3 4.5.7 3.6-1.4 5.1-5.1 3.5-2.7-1.1-2.9-1.5-2.4-4.7.5-2.7.2-3.8-1.1-4.5-1.5-.8-1.4-1.2 1.1-3.6 2.9-2.8 4.3-1.9 2.4 1.7zm-56.2-2c1.9 1.2 1.7 5.8-.4 8.1-1.4 1.6-1.5 2-.4 2 1 .1 1 .3-.3 1-1 .6-1.4 1.8-1.1 3 .7 2.5-2.2 3.8-4.8 2.2-1.5-1-2.1-.6-3.9 2.3-2 3.3-5.2 4.6-6.4 2.7-.6-1 3.3-9.3 4.8-10.4.5-.3 1.5-.4 2.1-.2.7.3 2-1.3 3-3.8 1.6-4.2 4.2-7.8 5.4-7.8.3 0 1.2.4 2 .9zm-200.4 1c.3.6-.3 1.5-1.4 2.1-2.1 1.1-3.7-.2-2.6-2 .8-1.3 3.2-1.3 4-.1zm49.5 1.2c0 .4-.7.6-1.5.3-.8-.4-1.5-1-1.5-1.5 0-.4.7-.6 1.5-.3.8.4 1.5 1 1.5 1.5zm227.8-.4c.5 1.8-1 1.6-3.4-.2-1.8-1.5-1.8-1.5.5-1.3 1.4.2 2.6.9 2.9 1.5zm57.9.3c1.4 2.1.7 5-1.1 5-.7 0-2-.6-3-1.3-1.6-1.2-1.7-1.6-.5-3.5 1.7-2.7 3.1-2.8 4.6-.2zm-351.2 0c.3.5-.1 1-.9 1-.9 0-1.6-.5-1.6-1 0-.6.4-1 .9-1 .6 0 1.3.4 1.6 1zm243.5.5c1 1.2 1 1.8 0 3-1.5 1.9-2.1 1.9-4.5.1-1.6-1.2-1.7-1.6-.6-3 1.7-2 3.5-2 5.1-.1zm-222 .3c0 .5-.9 1.7-2 2.7-1.6 1.4-2 1.5-2 .4 0-1.6 1.9-3.9 3.2-3.9.4 0 .8.4.8.8zm264.7 1.3c1.4 1.4.6 3.9-1.2 3.9-1.8 0-2.8-1.7-2.1-3.5.6-1.8 1.8-1.9 3.3-.4zm-24.2.9c.3.5.2 1-.4 1-.5 0-1.3-.5-1.6-1-.3-.6-.2-1 .4-1 .5 0 1.3.4 1.6 1zm-235.8 3.2c-.3.7-.5.2-.5-1.2s.2-1.9.5-1.3c.2.7.2 1.9 0 2.5zm228.8-2.2c2.2.9 2.4 1.3 1.5 3.1-1 1.7-.8 2.3.7 3.4 1.7 1.3 1.7 1.5.1 3.1-1.4 1.4-2.3 1.6-4.5.8-2.5-.9-2.8-1.4-2.5-5.2.2-2.9-.2-4.2-1-4.2-.9 0-.8-.3.2-1 1.9-1.2 2.3-1.2 5.5 0zm12.4 8.2c.1.5-.8.8-1.8.8-2.5 0-3.3-2.4-2-5.8l1.1-2.7 1.3 3.5c.8 1.9 1.4 3.8 1.4 4.2zm78.1-2.7c0 3.9 0 4-1.8 3.7-2.8-.6-3.5-1.8-2.3-4.1 1.6-2.9 4.1-2.7 4.1.4zm20.9-.9c.2.2.1 1.4-.3 2.8-.6 2.5-.6 2.5-4.1.9-3.9-1.9-4.3-2.7-1.7-4.2 1.4-.9 4.9-.6 6.1.5zm-446.2.6c-.5 1.5-5.5 1.4-7.1-.2-.7-.7.3-1 3.3-1s4.1.4 3.8 1.2zm324.3 1.4c-1.3 3.4-1.3 3.4 1.4 3.4 1.4 0 2.7.4 3 .8.8 1.3-5.3 5.5-7 4.8-1.8-.7-1.8-4.9.1-8.6 1.9-3.7 3.8-4 2.5-.4zm39.2 2.6c-1.5 1.5-2.7-1.4-1.7-4 .6-1.5.8-1.5 1.8.6.7 1.6.7 2.6-.1 3.4zm-349.4.2c-.2 2.1-.5 2.3-1.8 1.3-.8-.6-1.7-1.2-1.9-1.4-.8-.4 1.1-2.3 2.4-2.3 1 0 1.4.9 1.3 2.4zm-40.8.1c0 .8-.4 1.5-.9 1.5-1.3 0-2.2-1.6-1.4-2.4 1.1-1.1 2.3-.6 2.3.9zm376.5.5c.9 1.5-.4 4.7-2.2 5.4-2.7 1.1-3.8-1-1.9-3.8 1.7-2.8 3.1-3.2 4.1-1.6zM206 279c0 1.4-4.1 6-5.4 6-2.3 0-3.6-2.2-2.5-4.2 1.6-3 7.9-4.5 7.9-1.8zm-122.7 3c.6 2.4-.3 3.1-3 2.4-1.9-.5-2-.9-1.1-3.5.8-2.3 1.3-2.7 2.3-1.9.7.6 1.5 2 1.8 3zm328.9 4.1c-.4.3-2.3.9-4.2 1.2-1.9.3-2.9.3-2.2 0 1.7-.7 1.5-3-.4-3.7-2.2-.8-4.7 1.5-6.9 6.4-2 4.4-3 4.9-4.4 2.2-1.2-2.2.2-4.5 5.7-10.4l3.5-3.6 4.8 3.6c2.7 2 4.6 3.9 4.1 4.3zm100.6-4.4c3.4 4.9-.1 7.3-4.8 3.5-1.9-1.6-2.1-2.2-1.1-4 1.6-3 3.6-2.8 5.9.5zm14.3 1c-.8 1.5-1 1.5-1.1.2 0-1.7 1-3.2 1.8-2.5.2.3-.1 1.3-.7 2.3zm-218.9 6.2c-1.6 1.5-3.1 3.4-3.4 4.2-.3.8-.9 1.1-1.3.7-.4-.4-.2-2.9.5-5.6l1.1-5 3.1 1.5 3 1.5-3 2.7zm126.8-4c0 1.2-2 2.5-2.7 1.8-.7-.7.6-2.7 1.8-2.7.5 0 .9.4.9.9zm59 .1c0 .5-.7.7-1.5.4-.8-.4-1.5-.8-1.5-1 0-.2.7-.4 1.5-.4s1.5.4 1.5 1zm-207.9 4.3c-1.3 1.3-1.5-.1-.4-3 .7-1.7.8-1.7 1.1.1.2 1-.1 2.3-.7 2.9zm-184.4-.6c.7 1.9-2.9 2.4-5.5.7-1.8-1.2-2.1-1.8-1.2-2.4 1.5-.9 6.2.2 6.7 1.7zm339.8-.7c.3.5.2 1-.4 1-.5 0-1.3-.5-1.6-1-.3-.6-.2-1 .4-1 .5 0 1.3.4 1.6 1zm84 .2c3 1.3 3.1 1.9.6 4.9l-1.8 2.3-1.7-2.7c-1-1.4-1.5-3-1.2-3.6.4-.5-.4-1.2-1.6-1.4-2-.4-2-.4.4-.6 1.5 0 3.9.4 5.3 1.1zM367 290c0 2.3-3.7 3.6-7.5 2.6-2.8-.7-2.5-2.3.9-3.6 3.9-1.6 6.6-1.2 6.6 1zm37-1.3c0 .5-.7 1.7-1.5 2.7-1.5 2-1.5 2-1.5 0 0-1.2.3-2.4.7-2.7.9-.9 2.3-.9 2.3 0zm258.7 2.9c.7 2-.9 3.6-2.9 2.9-1-.4-1.4-1.4-1.1-2.6.6-2.3 3.1-2.5 4-.3zm-330.9 5c-1.5 1.5-3.1 2.3-3.8 1.9-1.6-1 1.7-4.5 4.4-4.5 1.9 0 1.9.1-.6 2.6zm119.8-1.5c1.2 2-1.3 3.3-3 1.6-1.2-1.2-1.3-1.7-.3-2 1.9-.8 2.5-.8 3.3.4zM344 305.7c0 .5-.5 1.5-1 2.3-.8 1.2-1 1.1-1-.8 0-1.2.5-2.2 1-2.2.6 0 1 .3 1 .7zm106.5 6.7c6.5 2.7 7.4 3.6 5 5.6-1.2 1-2.1.8-5-.9-4.5-2.6-6.1-2.6-7.5-.1-1.2 2.2-.1 2.7 1.7.9 1.7-1.7 5.8 3.1 7.3 8.6.7 2.5 2.3 5.6 3.6 7 1.3 1.5 2.4 2.9 2.4 3.2 0 1.6-10.6-1.2-21.7-5.7-6.8-2.8-13.2-5-14.3-5-2.7 0-3.4-1.8-.8-2.2 1.2-.2 2.3-.9 2.6-1.7.5-1.6-3.3-1.2-8.5 1-4.1 1.7-4.8.9-3.2-3.5 1.4-4 1.6-4 11.8-.5 6.4 2.2 7 1.9 10.1-5.3l2.2-5 4.1.6c2.3.3 6.9 1.7 10.2 3zm33.3 3.4c-1.4 1-1.8 2.1-1.3 4.2.7 3.2-1.1 4.4-5.1 3.4-1.8-.5-2.9-.1-3.8 1.1-.9 1.3-1.5 1.5-2 .6-.4-.6 0-1.4.9-1.7 1.3-.5 1.5-1.5 1-4-.6-3.2-.4-3.3 3.5-4.4 2.8-.7 4.5-1.9 5.2-3.6l1.2-2.5 1.1 2.8c1 2.4.9 3-.7 4.1zM423 314c0 .5-.4 1-.9 1-.6 0-1.3-.5-1.6-1-.3-.6.1-1 .9-1 .9 0 1.6.4 1.6 1zm-127 11.9c0 1.3-2.9 3.5-3.7 2.8-.7-.8 1.5-3.7 2.8-3.7.5 0 .9.4.9.9zM72.5 330c.6 2-2.2 10-3.6 10-1.1 0-1.1-.3.1-3.4 1-2.7.6-3-3.2-2.7-2.6.3-2.2-1.7.9-4.3 3-2.6 4.9-2.4 5.8.4zm228.9.2c-.7 1.1-4.4 1-4.4-.2 0-1.6 3.4-3 4.2-1.7.4.6.4 1.5.2 1.9zM316 328c0 .5-.4 1-.9 1-.6 0-1.3-.5-1.6-1-.3-.6.1-1 .9-1 .9 0 1.6.4 1.6 1zm-11.9 5.7c-.8 1.5-1 1.5-1.1.2 0-1.7 1-3.2 1.8-2.5.2.3-.1 1.3-.7 2.3zm58.2-1c-.7.2-1.9.2-2.5 0-.7-.3-.2-.5 1.2-.5s1.9.2 1.3.5zm74.7 1.2c0 1.3-3.7 2.4-5 1.6-.6-.4-.8-1.1-.5-1.6.8-1.2 5.5-1.2 5.5 0zm-127.3 2.3c-.3.8-.6.5-.6-.6-.1-1.1.2-1.7.5-1.3.3.3.4 1.2.1 1.9zm5.9 2.4c-.4.9-.9 1.5-1.1 1.2-.3-.3-.3-1.3.1-2.2.4-.9.9-1.5 1.1-1.2.3.3.3 1.3-.1 2.2zm5.1 3.6c-.3.7-.5.2-.5-1.2s.2-1.9.5-1.3c.2.7.2 1.9 0 2.5zm33.3 4.9c0 1.8-.1 1.9-2.5.3-1.4-.9-2.5-2.5-2.5-3.5 0-1.8.1-1.9 2.5-.3 1.4.9 2.5 2.5 2.5 3.5zm-278.5-1.6c0 3.1-4.9 2.8-5.3-.3-.3-2 0-2.3 2.5-2 2 .2 2.8.8 2.8 2.3zm249.5.9c-1.4 1.4-2.4 0-1.6-2.1.6-1.5.8-1.5 1.6-.3.6.9.5 1.9 0 2.4zm77.5.7c-.8 1.2-3.5 1.2-3.5 0 0-1.1 2.2-2 3.3-1.4.4.2.5.9.2 1.4zm-202.7 7c-.2 1.6-1.1 2.2-3.3 2.4-1.6.2-3.7.4-4.5.6-1.1.3-1.6-.7-1.8-4.1-.3-4.3-.3-4.4 1.6-2.7 2.4 2.2 3.5 2.1 5.8-.4l1.9-2.1.3 2.1c.2 1.1.2 3.1 0 4.2zm198.5-3.4c-.7.2-1.9.2-2.5 0-.7-.3-.2-.5 1.2-.5s1.9.2 1.3.5zm266.5 2c.2 1.2-.4 2.3-1.4 2.7-2.3.9-2.8.2-2-2.9.8-3 2.9-2.9 3.4.2zm-243.8.8c4.3 2.2 4.4 2.3 2 2.9-6.8 1.6-10 1.1-10-1.7 0-4.4 1.5-4.6 8-1.2zM93.5 355c1.1 1.8-.5 4.8-8.6 16-4.3 6.1-9.1 13.4-10.5 16.2-2.3 4.5-2.8 4.9-3.6 3.4-1.9-3.4-.2-9.8 4.6-17.5 2.5-4.1 4.9-9 5.2-10.8.7-3.9 1.6-4.1 3.8-1.1 1.5 2.2 1.6 2.2 3 .4 1.1-1.3 1.2-2.4.6-3.7-.8-1.3-.6-2 .7-2.8 2.3-1.3 4-1.4 4.8-.1zm224.3 2.3c.8.9.3 2.5-1.7 6-1.5 2.6-3 4.4-3.4 4-.9-.8-.9-9.8 0-10.6 1.1-1.1 4-.8 5.1.6zm78.5-.6c-.7.2-1.9.2-2.5 0-.7-.3-.2-.5 1.2-.5s1.9.2 1.3.5zm44.7.8c1 1.2 1 1.5-.4 1.5-.9 0-1.6-.7-1.6-1.5s.2-1.5.4-1.5.9.7 1.6 1.5zm-243.8 1c0 .5-.5 1.1-1.1 1.3-.6.2-1.1-.4-1.1-1.3s.5-1.5 1.1-1.3c.6.2 1.1.8 1.1 1.3zm155.3 4.5c-.3 1.4-1.7 4.9-3.1 7.9-2.8 6.3-2.4 7.3 4.4 10.3 5.7 2.5 5.5 5-1.1 17.5-1.9 3.7-3.1 5.1-4.2 4.7-2.1-.8-1.9-3.7.5-6.7 1.1-1.4 2-3.2 2-4 0-1.8-2.8-4.2-3.7-3.3-.4.4-.1 1.1.7 1.6 1.2.7 1.1 1.2-.4 2.8-2 2.3-5.5 3.8-10.7 4.6-2 .4-4.4 1.5-5.4 2.6s-2.2 2-2.8 2c-2.1 0 .8-8.1 7.4-20.9 3.8-7.3 6.9-13.9 6.9-14.7 0-.8.5-1.4 1-1.4.6 0 1 .9 1 2 0 1.2.7 2 1.6 2 1.3 0 1.5-.6 1-2.8-.4-1.5-.9-4.4-1.3-6.5l-.6-3.8 3.7 1.8c3.2 1.5 3.6 2.1 3.1 4.3zm32.2-3.8c-.3.8-.6.5-.6-.6-.1-1.1.2-1.7.5-1.3.3.3.4 1.2.1 1.9zm273-.5c.2.6-.3 1.3-1.2 1.6-1 .5-1.5 0-1.5-1.4 0-2.1 2.1-2.2 2.7-.2zm-263.4 4c-.7.2-1.9.2-2.5 0-.7-.3-.2-.5 1.2-.5s1.9.2 1.3.5zm262.3 5c-.5 1.1.1 2.3 1.6 3.4 1.2 1 2 2 1.6 2.4-.9.9-7-5.4-6.3-6.5 1.1-1.8 3.8-1.2 3.1.7zm-301.5 2c-.8 1.5-1 1.5-1.1.2 0-1.7 1-3.2 1.8-2.5.2.3-.1 1.3-.7 2.3zm111.6-2.1c-.3.3-1.2.4-1.9.1-.8-.3-.5-.6.6-.6 1.1-.1 1.7.2 1.3.5zm-74.4 1.1c-.7.2-1.9.2-2.5 0-.7-.3-.2-.5 1.2-.5s1.9.2 1.3.5zm-159.7 5c-1.1 1.1-1.7-.4-.9-2.3.7-1.8.8-1.8 1.1-.1.2 1 .1 2.1-.2 2.4zm50.8-1.8c.3.4-.8 2-2.4 3.4-3.6 3.3-5 1.7-1.6-1.8 2.7-2.7 3.2-2.9 4-1.6zm4.6 3.6c-.7.8-1.6 1.2-2.1.9-1.3-.8-.1-2.4 1.8-2.4 1.3 0 1.3.3.3 1.5zm46.3 5.2c-.3.7-.9 1-1.4.7-1.1-.6-1.2-3.8-.2-4.8.9-.9 2.2 2.5 1.6 4.1zm53.6-2.4c.6.8.8 1.7.5 2-.9.8-4.4-1.1-4.4-2.3 0-1.5 2.6-1.2 3.9.3zm48.1 2.2c1 1.3.9 1.5-.9 1.5-1.2 0-2.1-.6-2.1-1.5 0-.8.4-1.5.9-1.5s1.4.7 2.1 1.5zm-126.1 3.1c-1.4 1.8-2.4 1.1-1.5-1.1.3-.9 1.1-1.3 1.6-1 .8.5.7 1.1-.1 2.1zm125.7 3c2.8 2.9 2.9 3.4 1.1 3.4-1.7 0-5.9-4.4-5-5.3 1-1.1 1.4-.9 3.9 1.9zM225 393.5c0 .8-.4 1.5-1 1.5-.5 0-.7-.7-.4-1.5.4-.8.8-1.5 1-1.5.2 0 .4.7.4 1.5zm5.4 3.7c-.8 2.7-1.2 3.3-1.9 2.7-.7-.8.7-4.9 1.7-4.9.5 0 .6 1 .2 2.2zm140.5 3.2c-.6.6-1.3.6-2-.1-.8-.8-.8-1.5.2-2.6 1.2-1.3 1.5-1.3 2 .2.4.9.3 2-.2 2.5zm-130 1.7c-2.3 2.3-3.5 2.4-3.1.1.6-3 2.3-4.4 3.8-3.1 1 .8.9 1.4-.7 3zm-14.1-.3c1.2.8.7 4.2-.7 4.2-1.7-.1-3.1-1.8-2.5-3.3.7-1.9 1.3-2 3.2-.9zm69.9 6.4c-.3.8-.6.5-.6-.6-.1-1.1.2-1.7.5-1.3.3.3.4 1.2.1 1.9zm39.3 0c0 .5-.9 2.6-2 4.8-2.6 5-2.5 5.8.5 7.2 1.9.8 2.3 1.7 2 3.5-1.7 8-1.2 7.4-5.3 6.7-5.2-.9-5.5-1.3-3.7-4 1.8-2.8.5-3.1-2.9-.9-2.3 1.5-2.5 1.5-4.5-1.4l-2.2-3 7.3-7.3c4.7-4.7 7.9-7.2 9.1-6.9.9.2 1.7.7 1.7 1.3zm146-.2c0 .5-.7 1-1.5 1s-1.5-.5-1.5-1c0-.6.7-1 1.5-1s1.5.4 1.5 1zm-242.3 3.2c-.3.7-.5.2-.5-1.2s.2-1.9.5-1.3c.2.7.2 1.9 0 2.5zm-12 1c-.3.8-.6.5-.6-.6-.1-1.1.2-1.7.5-1.3.3.3.4 1.2.1 1.9zm30.8.8c.3.5.2 1-.4 1-.5 0-1.3-.5-1.6-1-.3-.6-.2-1 .4-1 .5 0 1.3.4 1.6 1zm-19.5 2c1.3.8 1.3 1-.2 1-.9 0-2-.5-2.3-1-.8-1.3.5-1.3 2.5 0zm230.6 1.7c-.4.9-.1 2 .6 2.4 1 .6 1 1.1.1 2-.9.9-1.8.8-3.7-.5-3.5-2.2-3.5-5-.1-4.4 1.4.3 2.5.1 2.5-.3 0-.5.3-.9.6-.9s.3.8 0 1.7zM256 418c0 1.1-.4 2-1 2-.5 0-1-.9-1-2s.5-2 1-2c.6 0 1 .9 1 2zm85 1c0 .5-.6 1-1.4 1-.8 0-1.8-.5-2.1-1-.3-.6.3-1 1.4-1 1.2 0 2.1.4 2.1 1zm-244.9 4.3c-1.3 1.3-1.5-.1-.4-3 .7-1.7.8-1.7 1.1.1.2 1-.1 2.3-.7 2.9zm251.9 1.4c0 1.2.7 2.8 1.5 3.5.9.7 2.3 2 3.2 2.8 1.8 1.6 80.1 37 81.9 37 .6 0 1.8-1 2.7-2.3 1.4-2.1 1.5-2.1 3.4-.4 1.1.9 4.1 2.4 6.8 3.4l4.8 1.6 2.1-2.6c1.2-1.4 2.8-3.6 3.7-4.8 1.1-1.6 2.1-2 3.3-1.6 1.6.6 1.8 1.6 1.4 6.1-.4 5.1-.4 5.3 2.1 5.4 1.4.1 5.3.3 8.6.4l6 .4v3.2c0 4.3 1 4 3.5-.8 1.1-2.2 2.5-4 3.2-4 1.8 0 .1 6.9-2.7 11.2l-2.7 4-2.1-2.1c-4.3-4-19.5-9.1-18.6-6.2.3.7 18.5 9.3 40.7 19.3 22.1 9.9 40.2 18.3 40.2 18.7 0 .8-15.6 11.5-25.5 17.4-17 10.2-39.6 20.5-57.2 26.1-8 2.5-26.7 7.4-30.8 8.1-42.4 7.1-77.6 6.9-112.3-.6-5.1-1.1-10.9-1.9-12.7-1.7-2.5.2-3.9-.3-4.8-1.6-1.1-1.5-2.1-1.7-4.8-1.2-3.4.6-3.4.7-3.1 5.1.3 3.3.8 4.5 2.1 4.6 1.1 0 1 .3-.6.9-1.2.5-2.4 1.8-2.8 2.9-.8 2.6-2.5 1.8-2.5-1.2-.1-1.9-.8-1.4-4.5 2.8-2.5 2.7-6.1 8-8.1 11.8-3.9 7.4-4.9 8.2-8.3 7-2.1-.8-1.8-1.5 7-14.3 5.1-7.4 10.5-15.1 12-17.1 1.6-2 2.9-4.1 2.9-4.5 0-.5-3.7-2.2-8.3-3.7-16.2-5.6-43.2-18.5-54.1-26l-3.5-2.3 22.1-16.9c12.1-9.4 22.5-17.3 23.2-17.8.8-.5.6-1.1-.6-2.1-1.3-1-1.6-2.2-1.1-5 .3-2 .9-3.9 1.4-4.1.4-.3 2.3.8 4.2 2.5l3.4 3 35.9-27.6c19.8-15.2 36.3-28 36.8-28.4 1.5-1.5-1.5-4.2-4.1-3.7-3 .6-3.7-.6-2.9-4.9.5-2.4 1.2-3.4 2.6-3.4 1 0 2.2-.5 2.6-1.2 1-1.5 3.4 1.9 3.4 4.9zm121 1.5c0 1.1-3.2 1-4.9-.1-.8-.5-1.1-1.6-.8-2.6.6-1.5.9-1.5 3.2.2 1.3 1 2.5 2.1 2.5 2.5zm11.1.1c-.8.8-1.1.7-1.1-.4 0-2 1.3-3.4 1.8-1.9.3.7-.1 1.7-.7 2.3zm-4.4-1.7c-.3.3-1.2.4-1.9.1-.8-.3-.5-.6.6-.6 1.1-.1 1.7.2 1.3.5zm-37 11c-.3.3-1.2.4-1.9.1-.8-.3-.5-.6.6-.6 1.1-.1 1.7.2 1.3.5zm26.3.4c0 1.2-.8 1.2-3.5 0-1.8-.8-1.7-.9.8-.9 1.5-.1 2.7.3 2.7.9zm13.3.7c-.7.2-1.9.2-2.5 0-.7-.3-.2-.5 1.2-.5s1.9.2 1.3.5zm-7 .9c1.1 1.1-.5 3.4-2.4 3.4-1.8 0-2.6-2-1.2-3.3.8-.9 2.8-.9 3.6-.1zm-195.8 4.3c-.7 2.3-2.5 2.9-2.5.8 0-1.4 2.1-3.9 2.8-3.3.2.3.1 1.4-.3 2.5zm185-.9c.3.5-.1 1-1 1s-1.3-.5-1-1c.3-.6.8-1 1-1 .2 0 .7.4 1 1zm-349 2.9c-.3.6-1.1 1.1-1.7 1.1-.6 0-.6-.6.2-1.5 1.4-1.7 2.6-1.3 1.5.4zm164.6 2.6c0 .5-.9 1.1-2.1 1.3-1.5.3-1.8-.1-1.4-1.3.7-1.7 3.5-1.7 3.5 0zm4.2 5c.7 1.8-.6 2.7-2.7 1.9-1.7-.7-2-1.6-.9-2.7 1.1-1.2 3.1-.8 3.6.8zM621 456c0 .5-.4 1-.9 1-.6 0-1.3-.5-1.6-1-.3-.6.1-1 .9-1 .9 0 1.6.4 1.6 1zm-30 37c0 2.3-1 2.6-2.8.8-1.8-1.8-1.5-2.8.8-2.8 1.3 0 2 .7 2 2zm-407.3 16.2c-.3.8-.6.5-.6-.6-.1-1.1.2-1.7.5-1.3.3.3.4 1.2.1 1.9zm15.7 31.1c-.7 1.8-2.4 2.3-2.4.8 0-2.2 1.3-4.2 2.2-3.3.5.5.6 1.6.2 2.5zm23.1.7c-.4 1.2-.9 1.9-1.2 1.7-.3-.3-.2-1.5.2-2.7.4-1.2.9-1.9 1.2-1.7.3.3.2 1.5-.2 2.7zm-29.3 11.2c-.7.7-1.2.8-1.2.2 0-.6.3-1.4.7-1.7.3-.4.9-.5 1.2-.2.2.3-.1 1.1-.7 1.7zm66.8 5.3c0 .9-.9 3.4-2.1 5.6-1.9 3.9-1.9 4.2-.3 6 1.6 1.8 1.6 1.9 0 1.9-1 0-2.6-.5-3.6-1-1.4-.8-2.1-.6-2.8.6-.7 1.3-1.3.9-3.3-2.1-1.3-2-4.4-4.9-6.8-6.5-5.4-3.7-4.1-3.9 3.1-.5 2.9 1.4 6.2 2.5 7.4 2.5 2.4 0 4.8-2.4 5.8-5.8.8-2.5 2.6-3 2.6-.7zm243 8.5c0 1.3-2 1.3-4 0-1.2-.8-.9-1 1.3-1 1.5 0 2.7.4 2.7 1zm-68 6c0 1.1-.3 2-.7 2-.5 0-1.8.3-3 .6-2.8.8-3.1-1.3-.5-3.2 2.5-1.9 4.2-1.7 4.2.6zm-139.3 2.2c-.1 1.7-.8 3.3-1.6 3.6-1 .3-1.1 0-.3-1.3.5-1 .7-2.6.5-3.6-.3-1.1-.1-1.9.5-1.9s1 1.4.9 3.2zm146.1 2.6c2 1.1 8.6 4.6 14.6 8 6 3.4 12.2 6.4 13.7 6.7 3.6.8 3.7 1.8.4 3.3-3.9 1.8-5.5 1.5-14.5-2.8-4.6-2.3-10.3-4.3-12.7-4.7-2.7-.3-4.3-1.1-4.3-1.9 0-.8-.4-1.4-1-1.4-.5 0-1-.5-1-1.2 0-.6.8-.4 1.9.6 1.6 1.4 2 1.5 3 .2 2-2.3.3-3.9-3.4-3.2-2.5.5-3.4.3-3.9-1-1.8-4.7.9-5.7 7.2-2.6zM296 589c9.6 4.9 28.3 16.4 25 15.5-5.3-1.5-37-18.8-37-20.2 0-.8 4.5.9 12 4.7zm55-1c0 .5-.7.7-1.5.4-.8-.4-1.5-.8-1.5-1 0-.2.7-.4 1.5-.4s1.5.4 1.5 1zm13.1 2c3 1.7 2.4 4.2-.8 3.8-2-.2-2.9-.9-3.1-2.6-.4-2.4.9-2.8 3.9-1.2zm-85.4 6.4c-.4 1-1.3 1.3-2.3.9-1.1-.4-2.2.1-3 1.2-.8 1-1.7 1.5-2.1 1.1-.4-.4.8-2 2.7-3.6 3.5-2.9 5.8-2.6 4.7.4zm151.3 0c0 1.8-2.7 3.9-4 3.1-1.1-.7-1.4-4.8-.4-5.8 1-.9 4.4 1.2 4.4 2.7zm-25.5-1.4c.3.5.1 1-.4 1-.6 0-1.1-.5-1.1-1 0-.6.2-1 .4-1 .3 0 .8.4 1.1 1zm-117 1.9c.7 1.2-1.2 2.4-2.5 1.6-1.1-.7-.4-2.5 1-2.5.5 0 1.1.4 1.5.9zm68.8 3.1c-.3 1.1-.7 2-.9 2-.2 0-.4-.9-.4-2s.4-2 .9-2 .7.9.4 2zm61.3-.9c5 1.3 6.2 3.5 1.3 2.4-3-.7-3.1-.6-2.7 1.9.7 3.7-.7 4.2-4.2 1.3-2.6-2.3-2.8-2.6-1.4-4.6 1.8-2.5 1.3-2.4 7-1zm-125.5 5c2.3 1.2 1.6 2.9-1 2.9-1 0-2.1-.9-2.4-2-.6-2.2.5-2.5 3.4-.9zm61.4 3.9c.4.6.1 1.8-.6 2.6-1.1 1.3-1.4 1.3-2.7 0-.8-.8-1.1-1.9-.8-2.5.9-1.4 3.3-1.4 4.1-.1zm-16 3c.3.5-.1 1-.9 1s-1.8-.5-2.1-1c-.3-.6.1-1 .9-1s1.8.4 2.1 1z"/><path d="M377.5 274c.3.5.8 1 1.1 1 .2 0 .4-.5.4-1 0-.6-.5-1-1.1-1-.5 0-.7.4-.4 1zM459 475.1c0 1.1.5 1.7 1 1.4.6-.3 1-1.3 1-2.1s-.4-1.4-1-1.4c-.5 0-1 .9-1 2.1zM452.6 23.9c.5.5 4.1 1.9 7.9 3.1 24.2 7.8 51.5 21.5 73 36.6 5.4 3.7 12.6 7.1 10 4.7-3-2.9-11.5-8.3-12.9-8.3-.9 0-1.6-.4-1.6-.9 0-1.1-18.4-12.3-28.5-17.4-18.9-9.4-52.3-21.8-47.9-17.8zM553 77.3c0 .8.7 2.1 1.6 2.8 1.4 1.1 1.5 1 1.2-1.1-.3-2.6-2.8-4.1-2.8-1.7zM565.5 89.9c4.1 4.2 6.1 5.7 6.7 4.8.5-.8.8-.5.8.9 0 1.1 1.2 3.1 2.6 4.5 4.4 4.1 16.7 18.9 24 28.9 3.8 5.2 7.2 9.7 7.7 9.8.4.2 2.1 1.5 3.7 2.9 2.4 2 3 3.3 3 6.3 0 3.4.5 4.2 4.5 7.1 4.8 3.5 5.3 4.4 3 5.3-2.2.8 2.1 9.6 4.4 8.9 1.2-.4 1.3-.3.3.4s-1 1.6-.2 3.8c1.2 3.1 2 2.6 3.9-2.2 1.2-3 1-3.7-3-10.7-3.3-5.9-4.9-7.7-7.1-8.1-2.5-.6-2.8-1.1-2.8-4.4 0-3.1-1.3-5.5-7.3-13.7-6.5-8.8-14.7-18.7-23-27.8-2-2.2-2.7-2.5-2.2-1.2.6 1.9.5 1.9-1.5.1-1.6-1.4-1.8-2.1-.8-2.8.9-.6.7-.7-.6-.3-1.3.4-1.7.2-1.3-.8.3-.8-1.8-3.6-5.1-6.7-8.3-7.9-10.4-9.6-13.2-10.4-2-.6-1.3.5 3.5 5.4z"/><path d="M617.6 157.5c.4.8.8 1.5 1 1.5.2 0 .4-.7.4-1.5s-.4-1.5-1-1.5c-.5 0-.7.7-.4 1.5zM470 205.1c0 .5.5.7 1 .4.6-.3 1-.8 1-1.1 0-.2-.4-.4-1-.4-.5 0-1 .5-1 1.1zM67.1 253.4c-.7.8-2.1 1.2-3.3.8-1.5-.3-1.9-.1-1.6.9.8 2.3 4.5 2.3 5.8-.1 1.4-2.6.8-3.6-.9-1.6zM153 554.4c0 .4 1.5 1.5 3.3 2.6 3.4 2.1 6.7 2.6 6.7 1 0-.5-.8-1.3-1.7-1.8-2.4-1.3-8.3-2.5-8.3-1.8zM141.1 585.8c-.8 2-1.6 4.3-1.9 5.1-.3.9-.1 1.2.6.7 1.2-.7 3.7-8.5 3-9.2-.2-.2-1 1.3-1.7 3.4zM261 603.8c0 .5 2.3 1.6 5.1 2.5l5.2 1.6-2.3-2.5c-2.2-2.3-8-3.5-8-1.6z"/></svg>